<?xml version="1.0" standalone="no"?>
 <!DOCTYPE svg PUBLIC "-//W3C//DTD SVG 1.1//EN" 
 "http://www.w3.org/Graphics/SVG/1.1/DTD/svg11.dtd"> 
<svg
  xmlns:svg="http://www.w3.org/2000/svg"
  xmlns="http://www.w3.org/2000/svg"
  xmlns:xlink="http://www.w3.org/1999/xlink"
  xmlns:inkscape="http://www.inkscape.org/namespaces/inkscape"
  version="1.1"
  width="297.0022mm" height="210.0072mm" viewBox="0.0000 0.0000 297.0022 210.0072">
<title>SVG Image created as Charan_Indoor-Mounting Holes.svg date 2026-06-10T03:05:28 </title>
  <desc>Image generated by Eeschema-SVG </desc>
<g style="fill:#000000; fill-opacity:1.0000;stroke:#000000; stroke-opacity:1.0000;
stroke-linecap:round; stroke-linejoin:round;"
 transform="translate(0 0) scale(1 1)">
</g>
<g style="fill:#FFFFFF; fill-opacity:1.0000; 
stroke:#FFFFFF; stroke-width:0.0001; stroke-opacity:1; 
stroke-linecap:round; stroke-linejoin:round;">
<rect x="0.000000" y="0.000000" width="297.002200" height="210.007200" rx="0.000000" />
</g>
<g style="fill:none; 
stroke:#840000; stroke-width:0.1524; stroke-opacity:1; 
stroke-linecap:round; stroke-linejoin:round;">
<path d="M177.0022 166.0072
L285.0022 166.0072
L285.0022 198.0072
L177.0022 198.0072
L177.0022 166.0072
" />
<path d="M10.0000 10.0000
L287.0022 10.0000
L287.0022 200.0072
L10.0000 200.0072
L10.0000 10.0000
" />
<path d="M12.0000 12.0000
L285.0022 12.0000
L285.0022 198.0072
L12.0000 198.0072
L12.0000 12.0000
" />
<path d="M60.0000 12.0000
L60.0000 10.0000
" />
<path d="M110.0000 12.0000
L110.0000 10.0000
" />
<path d="M160.0000 12.0000
L160.0000 10.0000
" />
<path d="M210.0000 12.0000
L210.0000 10.0000
" />
<path d="M260.0000 12.0000
L260.0000 10.0000
" />
<text x="35.0000" y="11.6500"
textLength="1.4353" font-size="1.7333" lengthAdjust="spacingAndGlyphs"
text-anchor="start" opacity="0" stroke-opacity="0">1</text>
<g class="stroked-text"><desc>1</desc>
<path d="M36.0906 11.5935
L35.3478 11.5935
" />
<path d="M35.7192 11.5935
L35.7192 10.2935
" />
<path d="M35.7192 10.2935
L35.5954 10.4792
" />
<path d="M35.5954 10.4792
L35.4716 10.6030
" />
<path d="M35.4716 10.6030
L35.3478 10.6649
" />
</g><text x="85.0000" y="11.6500"
textLength="1.4353" font-size="1.7333" lengthAdjust="spacingAndGlyphs"
text-anchor="start" opacity="0" stroke-opacity="0">2</text>
<g class="stroked-text"><desc>2</desc>
<path d="M85.3478 10.4173
L85.4097 10.3554
" />
<path d="M85.4097 10.3554
L85.5335 10.2935
" />
<path d="M85.5335 10.2935
L85.8430 10.2935
" />
<path d="M85.8430 10.2935
L85.9668 10.3554
" />
<path d="M85.9668 10.3554
L86.0287 10.4173
" />
<path d="M86.0287 10.4173
L86.0906 10.5411
" />
<path d="M86.0906 10.5411
L86.0906 10.6649
" />
<path d="M86.0906 10.6649
L86.0287 10.8506
" />
<path d="M86.0287 10.8506
L85.2859 11.5935
" />
<path d="M85.2859 11.5935
L86.0906 11.5935
" />
</g><text x="135.0000" y="11.6500"
textLength="1.4353" font-size="1.7333" lengthAdjust="spacingAndGlyphs"
text-anchor="start" opacity="0" stroke-opacity="0">3</text>
<g class="stroked-text"><desc>3</desc>
<path d="M135.2859 10.2935
L136.0906 10.2935
" />
<path d="M136.0906 10.2935
L135.6573 10.7887
" />
<path d="M135.6573 10.7887
L135.8430 10.7887
" />
<path d="M135.8430 10.7887
L135.9668 10.8506
" />
<path d="M135.9668 10.8506
L136.0287 10.9125
" />
<path d="M136.0287 10.9125
L136.0906 11.0363
" />
<path d="M136.0906 11.0363
L136.0906 11.3458
" />
<path d="M136.0906 11.3458
L136.0287 11.4696
" />
<path d="M136.0287 11.4696
L135.9668 11.5316
" />
<path d="M135.9668 11.5316
L135.8430 11.5935
" />
<path d="M135.8430 11.5935
L135.4716 11.5935
" />
<path d="M135.4716 11.5935
L135.3478 11.5316
" />
<path d="M135.3478 11.5316
L135.2859 11.4696
" />
</g><text x="185.0000" y="11.6500"
textLength="1.4353" font-size="1.7333" lengthAdjust="spacingAndGlyphs"
text-anchor="start" opacity="0" stroke-opacity="0">4</text>
<g class="stroked-text"><desc>4</desc>
<path d="M185.9668 10.7268
L185.9668 11.5935
" />
<path d="M185.6573 10.2316
L185.3478 11.1601
" />
<path d="M185.3478 11.1601
L186.1525 11.1601
" />
</g><text x="235.0000" y="11.6500"
textLength="1.4353" font-size="1.7333" lengthAdjust="spacingAndGlyphs"
text-anchor="start" opacity="0" stroke-opacity="0">5</text>
<g class="stroked-text"><desc>5</desc>
<path d="M236.0287 10.2935
L235.4097 10.2935
" />
<path d="M235.4097 10.2935
L235.3478 10.9125
" />
<path d="M235.3478 10.9125
L235.4097 10.8506
" />
<path d="M235.4097 10.8506
L235.5335 10.7887
" />
<path d="M235.5335 10.7887
L235.8430 10.7887
" />
<path d="M235.8430 10.7887
L235.9668 10.8506
" />
<path d="M235.9668 10.8506
L236.0287 10.9125
" />
<path d="M236.0287 10.9125
L236.0906 11.0363
" />
<path d="M236.0906 11.0363
L236.0906 11.3458
" />
<path d="M236.0906 11.3458
L236.0287 11.4696
" />
<path d="M236.0287 11.4696
L235.9668 11.5316
" />
<path d="M235.9668 11.5316
L235.8430 11.5935
" />
<path d="M235.8430 11.5935
L235.5335 11.5935
" />
<path d="M235.5335 11.5935
L235.4097 11.5316
" />
<path d="M235.4097 11.5316
L235.3478 11.4696
" />
</g><text x="285.0000" y="11.6500"
textLength="1.4353" font-size="1.7333" lengthAdjust="spacingAndGlyphs"
text-anchor="start" opacity="0" stroke-opacity="0">6</text>
<g class="stroked-text"><desc>6</desc>
<path d="M285.9668 10.2935
L285.7192 10.2935
" />
<path d="M285.7192 10.2935
L285.5954 10.3554
" />
<path d="M285.5954 10.3554
L285.5335 10.4173
" />
<path d="M285.5335 10.4173
L285.4097 10.6030
" />
<path d="M285.4097 10.6030
L285.3478 10.8506
" />
<path d="M285.3478 10.8506
L285.3478 11.3458
" />
<path d="M285.3478 11.3458
L285.4097 11.4696
" />
<path d="M285.4097 11.4696
L285.4716 11.5316
" />
<path d="M285.4716 11.5316
L285.5954 11.5935
" />
<path d="M285.5954 11.5935
L285.8430 11.5935
" />
<path d="M285.8430 11.5935
L285.9668 11.5316
" />
<path d="M285.9668 11.5316
L286.0287 11.4696
" />
<path d="M286.0287 11.4696
L286.0906 11.3458
" />
<path d="M286.0906 11.3458
L286.0906 11.0363
" />
<path d="M286.0906 11.0363
L286.0287 10.9125
" />
<path d="M286.0287 10.9125
L285.9668 10.8506
" />
<path d="M285.9668 10.8506
L285.8430 10.7887
" />
<path d="M285.8430 10.7887
L285.5954 10.7887
" />
<path d="M285.5954 10.7887
L285.4716 10.8506
" />
<path d="M285.4716 10.8506
L285.4097 10.9125
" />
<path d="M285.4097 10.9125
L285.3478 11.0363
" />
</g><path d="M60.0000 198.0072
L60.0000 200.0072
" />
<path d="M110.0000 198.0072
L110.0000 200.0072
" />
<path d="M160.0000 198.0072
L160.0000 200.0072
" />
<path d="M210.0000 198.0072
L210.0000 200.0072
" />
<path d="M260.0000 198.0072
L260.0000 200.0072
" />
<text x="35.0000" y="199.6572"
textLength="1.4353" font-size="1.7333" lengthAdjust="spacingAndGlyphs"
text-anchor="start" opacity="0" stroke-opacity="0">1</text>
<g class="stroked-text"><desc>1</desc>
<path d="M36.0906 199.6007
L35.3478 199.6007
" />
<path d="M35.7192 199.6007
L35.7192 198.3007
" />
<path d="M35.7192 198.3007
L35.5954 198.4864
" />
<path d="M35.5954 198.4864
L35.4716 198.6102
" />
<path d="M35.4716 198.6102
L35.3478 198.6721
" />
</g><text x="85.0000" y="199.6572"
textLength="1.4353" font-size="1.7333" lengthAdjust="spacingAndGlyphs"
text-anchor="start" opacity="0" stroke-opacity="0">2</text>
<g class="stroked-text"><desc>2</desc>
<path d="M85.3478 198.4245
L85.4097 198.3626
" />
<path d="M85.4097 198.3626
L85.5335 198.3007
" />
<path d="M85.5335 198.3007
L85.8430 198.3007
" />
<path d="M85.8430 198.3007
L85.9668 198.3626
" />
<path d="M85.9668 198.3626
L86.0287 198.4245
" />
<path d="M86.0287 198.4245
L86.0906 198.5483
" />
<path d="M86.0906 198.5483
L86.0906 198.6721
" />
<path d="M86.0906 198.6721
L86.0287 198.8578
" />
<path d="M86.0287 198.8578
L85.2859 199.6007
" />
<path d="M85.2859 199.6007
L86.0906 199.6007
" />
</g><text x="135.0000" y="199.6572"
textLength="1.4353" font-size="1.7333" lengthAdjust="spacingAndGlyphs"
text-anchor="start" opacity="0" stroke-opacity="0">3</text>
<g class="stroked-text"><desc>3</desc>
<path d="M135.2859 198.3007
L136.0906 198.3007
" />
<path d="M136.0906 198.3007
L135.6573 198.7959
" />
<path d="M135.6573 198.7959
L135.8430 198.7959
" />
<path d="M135.8430 198.7959
L135.9668 198.8578
" />
<path d="M135.9668 198.8578
L136.0287 198.9197
" />
<path d="M136.0287 198.9197
L136.0906 199.0435
" />
<path d="M136.0906 199.0435
L136.0906 199.3530
" />
<path d="M136.0906 199.3530
L136.0287 199.4768
" />
<path d="M136.0287 199.4768
L135.9668 199.5388
" />
<path d="M135.9668 199.5388
L135.8430 199.6007
" />
<path d="M135.8430 199.6007
L135.4716 199.6007
" />
<path d="M135.4716 199.6007
L135.3478 199.5388
" />
<path d="M135.3478 199.5388
L135.2859 199.4768
" />
</g><text x="185.0000" y="199.6572"
textLength="1.4353" font-size="1.7333" lengthAdjust="spacingAndGlyphs"
text-anchor="start" opacity="0" stroke-opacity="0">4</text>
<g class="stroked-text"><desc>4</desc>
<path d="M185.9668 198.7340
L185.9668 199.6007
" />
<path d="M185.6573 198.2388
L185.3478 199.1673
" />
<path d="M185.3478 199.1673
L186.1525 199.1673
" />
</g><text x="235.0000" y="199.6572"
textLength="1.4353" font-size="1.7333" lengthAdjust="spacingAndGlyphs"
text-anchor="start" opacity="0" stroke-opacity="0">5</text>
<g class="stroked-text"><desc>5</desc>
<path d="M236.0287 198.3007
L235.4097 198.3007
" />
<path d="M235.4097 198.3007
L235.3478 198.9197
" />
<path d="M235.3478 198.9197
L235.4097 198.8578
" />
<path d="M235.4097 198.8578
L235.5335 198.7959
" />
<path d="M235.5335 198.7959
L235.8430 198.7959
" />
<path d="M235.8430 198.7959
L235.9668 198.8578
" />
<path d="M235.9668 198.8578
L236.0287 198.9197
" />
<path d="M236.0287 198.9197
L236.0906 199.0435
" />
<path d="M236.0906 199.0435
L236.0906 199.3530
" />
<path d="M236.0906 199.3530
L236.0287 199.4768
" />
<path d="M236.0287 199.4768
L235.9668 199.5388
" />
<path d="M235.9668 199.5388
L235.8430 199.6007
" />
<path d="M235.8430 199.6007
L235.5335 199.6007
" />
<path d="M235.5335 199.6007
L235.4097 199.5388
" />
<path d="M235.4097 199.5388
L235.3478 199.4768
" />
</g><text x="285.0000" y="199.6572"
textLength="1.4353" font-size="1.7333" lengthAdjust="spacingAndGlyphs"
text-anchor="start" opacity="0" stroke-opacity="0">6</text>
<g class="stroked-text"><desc>6</desc>
<path d="M285.9668 198.3007
L285.7192 198.3007
" />
<path d="M285.7192 198.3007
L285.5954 198.3626
" />
<path d="M285.5954 198.3626
L285.5335 198.4245
" />
<path d="M285.5335 198.4245
L285.4097 198.6102
" />
<path d="M285.4097 198.6102
L285.3478 198.8578
" />
<path d="M285.3478 198.8578
L285.3478 199.3530
" />
<path d="M285.3478 199.3530
L285.4097 199.4768
" />
<path d="M285.4097 199.4768
L285.4716 199.5388
" />
<path d="M285.4716 199.5388
L285.5954 199.6007
" />
<path d="M285.5954 199.6007
L285.8430 199.6007
" />
<path d="M285.8430 199.6007
L285.9668 199.5388
" />
<path d="M285.9668 199.5388
L286.0287 199.4768
" />
<path d="M286.0287 199.4768
L286.0906 199.3530
" />
<path d="M286.0906 199.3530
L286.0906 199.0435
" />
<path d="M286.0906 199.0435
L286.0287 198.9197
" />
<path d="M286.0287 198.9197
L285.9668 198.8578
" />
<path d="M285.9668 198.8578
L285.8430 198.7959
" />
<path d="M285.8430 198.7959
L285.5954 198.7959
" />
<path d="M285.5954 198.7959
L285.4716 198.8578
" />
<path d="M285.4716 198.8578
L285.4097 198.9197
" />
<path d="M285.4097 198.9197
L285.3478 199.0435
" />
</g><path d="M10.0000 60.0000
L12.0000 60.0000
" />
<path d="M10.0000 110.0000
L12.0000 110.0000
" />
<path d="M10.0000 160.0000
L12.0000 160.0000
" />
<text x="11.0000" y="35.6500"
textLength="1.3115" font-size="1.7333" lengthAdjust="spacingAndGlyphs"
text-anchor="middle" opacity="0" stroke-opacity="0">A</text>
<g class="stroked-text"><desc>A</desc>
<path d="M10.6905 35.2220
L11.3095 35.2220
" />
<path d="M10.5667 35.5935
L11.0000 34.2935
" />
<path d="M11.0000 34.2935
L11.4333 35.5935
" />
</g><text x="11.0000" y="85.6500"
textLength="1.4972" font-size="1.7333" lengthAdjust="spacingAndGlyphs"
text-anchor="middle" opacity="0" stroke-opacity="0">B</text>
<g class="stroked-text"><desc>B</desc>
<path d="M11.0928 84.9125
L11.2785 84.9744
" />
<path d="M11.2785 84.9744
L11.3404 85.0363
" />
<path d="M11.3404 85.0363
L11.4023 85.1601
" />
<path d="M11.4023 85.1601
L11.4023 85.3458
" />
<path d="M11.4023 85.3458
L11.3404 85.4696
" />
<path d="M11.3404 85.4696
L11.2785 85.5316
" />
<path d="M11.2785 85.5316
L11.1547 85.5935
" />
<path d="M11.1547 85.5935
L10.6595 85.5935
" />
<path d="M10.6595 85.5935
L10.6595 84.2935
" />
<path d="M10.6595 84.2935
L11.0928 84.2935
" />
<path d="M11.0928 84.2935
L11.2166 84.3554
" />
<path d="M11.2166 84.3554
L11.2785 84.4173
" />
<path d="M11.2785 84.4173
L11.3404 84.5411
" />
<path d="M11.3404 84.5411
L11.3404 84.6649
" />
<path d="M11.3404 84.6649
L11.2785 84.7887
" />
<path d="M11.2785 84.7887
L11.2166 84.8506
" />
<path d="M11.2166 84.8506
L11.0928 84.9125
" />
<path d="M11.0928 84.9125
L10.6595 84.9125
" />
</g><text x="11.0000" y="135.6500"
textLength="1.4972" font-size="1.7333" lengthAdjust="spacingAndGlyphs"
text-anchor="middle" opacity="0" stroke-opacity="0">C</text>
<g class="stroked-text"><desc>C</desc>
<path d="M11.4023 135.4696
L11.3404 135.5316
" />
<path d="M11.3404 135.5316
L11.1547 135.5935
" />
<path d="M11.1547 135.5935
L11.0309 135.5935
" />
<path d="M11.0309 135.5935
L10.8452 135.5316
" />
<path d="M10.8452 135.5316
L10.7214 135.4077
" />
<path d="M10.7214 135.4077
L10.6595 135.2839
" />
<path d="M10.6595 135.2839
L10.5976 135.0363
" />
<path d="M10.5976 135.0363
L10.5976 134.8506
" />
<path d="M10.5976 134.8506
L10.6595 134.6030
" />
<path d="M10.6595 134.6030
L10.7214 134.4792
" />
<path d="M10.7214 134.4792
L10.8452 134.3554
" />
<path d="M10.8452 134.3554
L11.0309 134.2935
" />
<path d="M11.0309 134.2935
L11.1547 134.2935
" />
<path d="M11.1547 134.2935
L11.3404 134.3554
" />
<path d="M11.3404 134.3554
L11.4023 134.4173
" />
</g><text x="11.0000" y="185.6500"
textLength="1.4972" font-size="1.7333" lengthAdjust="spacingAndGlyphs"
text-anchor="middle" opacity="0" stroke-opacity="0">D</text>
<g class="stroked-text"><desc>D</desc>
<path d="M10.6595 185.5935
L10.6595 184.2935
" />
<path d="M10.6595 184.2935
L10.9690 184.2935
" />
<path d="M10.9690 184.2935
L11.1547 184.3554
" />
<path d="M11.1547 184.3554
L11.2785 184.4792
" />
<path d="M11.2785 184.4792
L11.3404 184.6030
" />
<path d="M11.3404 184.6030
L11.4023 184.8506
" />
<path d="M11.4023 184.8506
L11.4023 185.0363
" />
<path d="M11.4023 185.0363
L11.3404 185.2839
" />
<path d="M11.3404 185.2839
L11.2785 185.4077
" />
<path d="M11.2785 185.4077
L11.1547 185.5316
" />
<path d="M11.1547 185.5316
L10.9690 185.5935
" />
<path d="M10.9690 185.5935
L10.6595 185.5935
" />
</g><path d="M287.0022 60.0000
L285.0022 60.0000
" />
<path d="M287.0022 110.0000
L285.0022 110.0000
" />
<path d="M287.0022 160.0000
L285.0022 160.0000
" />
<text x="286.0022" y="35.6500"
textLength="1.3115" font-size="1.7333" lengthAdjust="spacingAndGlyphs"
text-anchor="middle" opacity="0" stroke-opacity="0">A</text>
<g class="stroked-text"><desc>A</desc>
<path d="M285.6927 35.2220
L286.3117 35.2220
" />
<path d="M285.5689 35.5935
L286.0022 34.2935
" />
<path d="M286.0022 34.2935
L286.4355 35.5935
" />
</g><text x="286.0022" y="85.6500"
textLength="1.4972" font-size="1.7333" lengthAdjust="spacingAndGlyphs"
text-anchor="middle" opacity="0" stroke-opacity="0">B</text>
<g class="stroked-text"><desc>B</desc>
<path d="M286.0950 84.9125
L286.2807 84.9744
" />
<path d="M286.2807 84.9744
L286.3426 85.0363
" />
<path d="M286.3426 85.0363
L286.4045 85.1601
" />
<path d="M286.4045 85.1601
L286.4045 85.3458
" />
<path d="M286.4045 85.3458
L286.3426 85.4696
" />
<path d="M286.3426 85.4696
L286.2807 85.5316
" />
<path d="M286.2807 85.5316
L286.1569 85.5935
" />
<path d="M286.1569 85.5935
L285.6617 85.5935
" />
<path d="M285.6617 85.5935
L285.6617 84.2935
" />
<path d="M285.6617 84.2935
L286.0950 84.2935
" />
<path d="M286.0950 84.2935
L286.2188 84.3554
" />
<path d="M286.2188 84.3554
L286.2807 84.4173
" />
<path d="M286.2807 84.4173
L286.3426 84.5411
" />
<path d="M286.3426 84.5411
L286.3426 84.6649
" />
<path d="M286.3426 84.6649
L286.2807 84.7887
" />
<path d="M286.2807 84.7887
L286.2188 84.8506
" />
<path d="M286.2188 84.8506
L286.0950 84.9125
" />
<path d="M286.0950 84.9125
L285.6617 84.9125
" />
</g><text x="286.0022" y="135.6500"
textLength="1.4972" font-size="1.7333" lengthAdjust="spacingAndGlyphs"
text-anchor="middle" opacity="0" stroke-opacity="0">C</text>
<g class="stroked-text"><desc>C</desc>
<path d="M286.4045 135.4696
L286.3426 135.5316
" />
<path d="M286.3426 135.5316
L286.1569 135.5935
" />
<path d="M286.1569 135.5935
L286.0331 135.5935
" />
<path d="M286.0331 135.5935
L285.8474 135.5316
" />
<path d="M285.8474 135.5316
L285.7236 135.4077
" />
<path d="M285.7236 135.4077
L285.6617 135.2839
" />
<path d="M285.6617 135.2839
L285.5998 135.0363
" />
<path d="M285.5998 135.0363
L285.5998 134.8506
" />
<path d="M285.5998 134.8506
L285.6617 134.6030
" />
<path d="M285.6617 134.6030
L285.7236 134.4792
" />
<path d="M285.7236 134.4792
L285.8474 134.3554
" />
<path d="M285.8474 134.3554
L286.0331 134.2935
" />
<path d="M286.0331 134.2935
L286.1569 134.2935
" />
<path d="M286.1569 134.2935
L286.3426 134.3554
" />
<path d="M286.3426 134.3554
L286.4045 134.4173
" />
</g><text x="286.0022" y="185.6500"
textLength="1.4972" font-size="1.7333" lengthAdjust="spacingAndGlyphs"
text-anchor="middle" opacity="0" stroke-opacity="0">D</text>
<g class="stroked-text"><desc>D</desc>
<path d="M285.6617 185.5935
L285.6617 184.2935
" />
<path d="M285.6617 184.2935
L285.9712 184.2935
" />
<path d="M285.9712 184.2935
L286.1569 184.3554
" />
<path d="M286.1569 184.3554
L286.2807 184.4792
" />
<path d="M286.2807 184.4792
L286.3426 184.6030
" />
<path d="M286.3426 184.6030
L286.4045 184.8506
" />
<path d="M286.4045 184.8506
L286.4045 185.0363
" />
<path d="M286.4045 185.0363
L286.3426 185.2839
" />
<path d="M286.3426 185.2839
L286.2807 185.4077
" />
<path d="M286.2807 185.4077
L286.1569 185.5316
" />
<path d="M286.1569 185.5316
L285.9712 185.5935
" />
<path d="M285.9712 185.5935
L285.6617 185.5935
" />
</g><text x="200.0022" y="193.8572"
textLength="7.0143" font-size="2.0000" lengthAdjust="spacingAndGlyphs"
text-anchor="start" opacity="0" stroke-opacity="0">Date: </text>
<g class="stroked-text"><desc>Date: </desc>
<path d="M200.4595 193.7931
L200.4595 192.2931
" />
<path d="M200.4595 192.2931
L200.8166 192.2931
" />
<path d="M200.8166 192.2931
L201.0309 192.3645
" />
<path d="M201.0309 192.3645
L201.1738 192.5074
" />
<path d="M201.1738 192.5074
L201.2452 192.6502
" />
<path d="M201.2452 192.6502
L201.3166 192.9359
" />
<path d="M201.3166 192.9359
L201.3166 193.1502
" />
<path d="M201.3166 193.1502
L201.2452 193.4359
" />
<path d="M201.2452 193.4359
L201.1738 193.5788
" />
<path d="M201.1738 193.5788
L201.0309 193.7217
" />
<path d="M201.0309 193.7217
L200.8166 193.7931
" />
<path d="M200.8166 193.7931
L200.4595 193.7931
" />
<path d="M202.6024 193.7931
L202.6024 193.0074
" />
<path d="M202.6024 193.0074
L202.5309 192.8645
" />
<path d="M202.5309 192.8645
L202.3881 192.7931
" />
<path d="M202.3881 192.7931
L202.1024 192.7931
" />
<path d="M202.1024 192.7931
L201.9595 192.8645
" />
<path d="M202.6024 193.7217
L202.4595 193.7931
" />
<path d="M202.4595 193.7931
L202.1024 193.7931
" />
<path d="M202.1024 193.7931
L201.9595 193.7217
" />
<path d="M201.9595 193.7217
L201.8881 193.5788
" />
<path d="M201.8881 193.5788
L201.8881 193.4359
" />
<path d="M201.8881 193.4359
L201.9595 193.2931
" />
<path d="M201.9595 193.2931
L202.1024 193.2217
" />
<path d="M202.1024 193.2217
L202.4595 193.2217
" />
<path d="M202.4595 193.2217
L202.6024 193.1502
" />
<path d="M203.1023 192.7931
L203.6737 192.7931
" />
<path d="M203.3166 192.2931
L203.3166 193.5788
" />
<path d="M203.3166 193.5788
L203.3880 193.7217
" />
<path d="M203.3880 193.7217
L203.5309 193.7931
" />
<path d="M203.5309 193.7931
L203.6737 193.7931
" />
<path d="M204.7451 193.7217
L204.6023 193.7931
" />
<path d="M204.6023 193.7931
L204.3166 193.7931
" />
<path d="M204.3166 193.7931
L204.1737 193.7217
" />
<path d="M204.1737 193.7217
L204.1023 193.5788
" />
<path d="M204.1023 193.5788
L204.1023 193.0074
" />
<path d="M204.1023 193.0074
L204.1737 192.8645
" />
<path d="M204.1737 192.8645
L204.3166 192.7931
" />
<path d="M204.3166 192.7931
L204.6023 192.7931
" />
<path d="M204.6023 192.7931
L204.7451 192.8645
" />
<path d="M204.7451 192.8645
L204.8166 193.0074
" />
<path d="M204.8166 193.0074
L204.8166 193.1502
" />
<path d="M204.8166 193.1502
L204.1023 193.2931
" />
<path d="M205.4594 193.6502
L205.5308 193.7217
" />
<path d="M205.5308 193.7217
L205.4594 193.7931
" />
<path d="M205.4594 193.7931
L205.3880 193.7217
" />
<path d="M205.3880 193.7217
L205.4594 193.6502
" />
<path d="M205.4594 193.6502
L205.4594 193.7931
" />
<path d="M205.4594 192.8645
L205.5308 192.9359
" />
<path d="M205.5308 192.9359
L205.4594 193.0074
" />
<path d="M205.4594 193.0074
L205.3880 192.9359
" />
<path d="M205.3880 192.9359
L205.4594 192.8645
" />
<path d="M205.4594 192.8645
L205.4594 193.0074
" />
</g><path d="M177.0022 194.5072
L285.0022 194.5072
" />
<text x="178.0022" y="196.6572"
textLength="22.3002" font-size="2.0000" lengthAdjust="spacingAndGlyphs"
text-anchor="start" opacity="0" stroke-opacity="0">KiCad E.D.A. 10.0.3</text>
<g class="stroked-text"><desc>KiCad E.D.A. 10.0.3</desc>
<path d="M178.4595 196.5931
L178.4595 195.0931
" />
<path d="M179.3166 196.5931
L178.6738 195.7359
" />
<path d="M179.3166 195.0931
L178.4595 195.9502
" />
<path d="M179.9595 196.5931
L179.9595 195.5931
" />
<path d="M179.9595 195.0931
L179.8881 195.1645
" />
<path d="M179.8881 195.1645
L179.9595 195.2359
" />
<path d="M179.9595 195.2359
L180.0309 195.1645
" />
<path d="M180.0309 195.1645
L179.9595 195.0931
" />
<path d="M179.9595 195.0931
L179.9595 195.2359
" />
<path d="M181.5309 196.4502
L181.4595 196.5217
" />
<path d="M181.4595 196.5217
L181.2452 196.5931
" />
<path d="M181.2452 196.5931
L181.1024 196.5931
" />
<path d="M181.1024 196.5931
L180.8881 196.5217
" />
<path d="M180.8881 196.5217
L180.7452 196.3788
" />
<path d="M180.7452 196.3788
L180.6738 196.2359
" />
<path d="M180.6738 196.2359
L180.6024 195.9502
" />
<path d="M180.6024 195.9502
L180.6024 195.7359
" />
<path d="M180.6024 195.7359
L180.6738 195.4502
" />
<path d="M180.6738 195.4502
L180.7452 195.3074
" />
<path d="M180.7452 195.3074
L180.8881 195.1645
" />
<path d="M180.8881 195.1645
L181.1024 195.0931
" />
<path d="M181.1024 195.0931
L181.2452 195.0931
" />
<path d="M181.2452 195.0931
L181.4595 195.1645
" />
<path d="M181.4595 195.1645
L181.5309 195.2359
" />
<path d="M182.8167 196.5931
L182.8167 195.8074
" />
<path d="M182.8167 195.8074
L182.7452 195.6645
" />
<path d="M182.7452 195.6645
L182.6024 195.5931
" />
<path d="M182.6024 195.5931
L182.3167 195.5931
" />
<path d="M182.3167 195.5931
L182.1738 195.6645
" />
<path d="M182.8167 196.5217
L182.6738 196.5931
" />
<path d="M182.6738 196.5931
L182.3167 196.5931
" />
<path d="M182.3167 196.5931
L182.1738 196.5217
" />
<path d="M182.1738 196.5217
L182.1024 196.3788
" />
<path d="M182.1024 196.3788
L182.1024 196.2359
" />
<path d="M182.1024 196.2359
L182.1738 196.0931
" />
<path d="M182.1738 196.0931
L182.3167 196.0217
" />
<path d="M182.3167 196.0217
L182.6738 196.0217
" />
<path d="M182.6738 196.0217
L182.8167 195.9502
" />
<path d="M184.1738 196.5931
L184.1738 195.0931
" />
<path d="M184.1738 196.5217
L184.0309 196.5931
" />
<path d="M184.0309 196.5931
L183.7452 196.5931
" />
<path d="M183.7452 196.5931
L183.6023 196.5217
" />
<path d="M183.6023 196.5217
L183.5309 196.4502
" />
<path d="M183.5309 196.4502
L183.4595 196.3074
" />
<path d="M183.4595 196.3074
L183.4595 195.8788
" />
<path d="M183.4595 195.8788
L183.5309 195.7359
" />
<path d="M183.5309 195.7359
L183.6023 195.6645
" />
<path d="M183.6023 195.6645
L183.7452 195.5931
" />
<path d="M183.7452 195.5931
L184.0309 195.5931
" />
<path d="M184.0309 195.5931
L184.1738 195.6645
" />
<path d="M186.0309 195.8074
L186.5309 195.8074
" />
<path d="M186.7452 196.5931
L186.0309 196.5931
" />
<path d="M186.0309 196.5931
L186.0309 195.0931
" />
<path d="M186.0309 195.0931
L186.7452 195.0931
" />
<path d="M187.3880 196.4502
L187.4594 196.5217
" />
<path d="M187.4594 196.5217
L187.3880 196.5931
" />
<path d="M187.3880 196.5931
L187.3166 196.5217
" />
<path d="M187.3166 196.5217
L187.3880 196.4502
" />
<path d="M187.3880 196.4502
L187.3880 196.5931
" />
<path d="M188.1023 196.5931
L188.1023 195.0931
" />
<path d="M188.1023 195.0931
L188.4594 195.0931
" />
<path d="M188.4594 195.0931
L188.6737 195.1645
" />
<path d="M188.6737 195.1645
L188.8166 195.3074
" />
<path d="M188.8166 195.3074
L188.8880 195.4502
" />
<path d="M188.8880 195.4502
L188.9594 195.7359
" />
<path d="M188.9594 195.7359
L188.9594 195.9502
" />
<path d="M188.9594 195.9502
L188.8880 196.2359
" />
<path d="M188.8880 196.2359
L188.8166 196.3788
" />
<path d="M188.8166 196.3788
L188.6737 196.5217
" />
<path d="M188.6737 196.5217
L188.4594 196.5931
" />
<path d="M188.4594 196.5931
L188.1023 196.5931
" />
<path d="M189.6023 196.4502
L189.6737 196.5217
" />
<path d="M189.6737 196.5217
L189.6023 196.5931
" />
<path d="M189.6023 196.5931
L189.5309 196.5217
" />
<path d="M189.5309 196.5217
L189.6023 196.4502
" />
<path d="M189.6023 196.4502
L189.6023 196.5931
" />
<path d="M190.2452 196.1645
L190.9595 196.1645
" />
<path d="M190.1023 196.5931
L190.6023 195.0931
" />
<path d="M190.6023 195.0931
L191.1023 196.5931
" />
<path d="M191.6023 196.4502
L191.6737 196.5217
" />
<path d="M191.6737 196.5217
L191.6023 196.5931
" />
<path d="M191.6023 196.5931
L191.5309 196.5217
" />
<path d="M191.5309 196.5217
L191.6023 196.4502
" />
<path d="M191.6023 196.4502
L191.6023 196.5931
" />
<path d="M194.2452 196.5931
L193.3881 196.5931
" />
<path d="M193.8166 196.5931
L193.8166 195.0931
" />
<path d="M193.8166 195.0931
L193.6738 195.3074
" />
<path d="M193.6738 195.3074
L193.5309 195.4502
" />
<path d="M193.5309 195.4502
L193.3881 195.5217
" />
<path d="M195.1738 195.0931
L195.3167 195.0931
" />
<path d="M195.3167 195.0931
L195.4595 195.1645
" />
<path d="M195.4595 195.1645
L195.5310 195.2359
" />
<path d="M195.5310 195.2359
L195.6024 195.3788
" />
<path d="M195.6024 195.3788
L195.6738 195.6645
" />
<path d="M195.6738 195.6645
L195.6738 196.0217
" />
<path d="M195.6738 196.0217
L195.6024 196.3074
" />
<path d="M195.6024 196.3074
L195.5310 196.4502
" />
<path d="M195.5310 196.4502
L195.4595 196.5217
" />
<path d="M195.4595 196.5217
L195.3167 196.5931
" />
<path d="M195.3167 196.5931
L195.1738 196.5931
" />
<path d="M195.1738 196.5931
L195.0310 196.5217
" />
<path d="M195.0310 196.5217
L194.9595 196.4502
" />
<path d="M194.9595 196.4502
L194.8881 196.3074
" />
<path d="M194.8881 196.3074
L194.8167 196.0217
" />
<path d="M194.8167 196.0217
L194.8167 195.6645
" />
<path d="M194.8167 195.6645
L194.8881 195.3788
" />
<path d="M194.8881 195.3788
L194.9595 195.2359
" />
<path d="M194.9595 195.2359
L195.0310 195.1645
" />
<path d="M195.0310 195.1645
L195.1738 195.0931
" />
<path d="M196.3167 196.4502
L196.3881 196.5217
" />
<path d="M196.3881 196.5217
L196.3167 196.5931
" />
<path d="M196.3167 196.5931
L196.2453 196.5217
" />
<path d="M196.2453 196.5217
L196.3167 196.4502
" />
<path d="M196.3167 196.4502
L196.3167 196.5931
" />
<path d="M197.3167 195.0931
L197.4596 195.0931
" />
<path d="M197.4596 195.0931
L197.6024 195.1645
" />
<path d="M197.6024 195.1645
L197.6739 195.2359
" />
<path d="M197.6739 195.2359
L197.7453 195.3788
" />
<path d="M197.7453 195.3788
L197.8167 195.6645
" />
<path d="M197.8167 195.6645
L197.8167 196.0217
" />
<path d="M197.8167 196.0217
L197.7453 196.3074
" />
<path d="M197.7453 196.3074
L197.6739 196.4502
" />
<path d="M197.6739 196.4502
L197.6024 196.5217
" />
<path d="M197.6024 196.5217
L197.4596 196.5931
" />
<path d="M197.4596 196.5931
L197.3167 196.5931
" />
<path d="M197.3167 196.5931
L197.1739 196.5217
" />
<path d="M197.1739 196.5217
L197.1024 196.4502
" />
<path d="M197.1024 196.4502
L197.0310 196.3074
" />
<path d="M197.0310 196.3074
L196.9596 196.0217
" />
<path d="M196.9596 196.0217
L196.9596 195.6645
" />
<path d="M196.9596 195.6645
L197.0310 195.3788
" />
<path d="M197.0310 195.3788
L197.1024 195.2359
" />
<path d="M197.1024 195.2359
L197.1739 195.1645
" />
<path d="M197.1739 195.1645
L197.3167 195.0931
" />
<path d="M198.4596 196.4502
L198.5310 196.5217
" />
<path d="M198.5310 196.5217
L198.4596 196.5931
" />
<path d="M198.4596 196.5931
L198.3882 196.5217
" />
<path d="M198.3882 196.5217
L198.4596 196.4502
" />
<path d="M198.4596 196.4502
L198.4596 196.5931
" />
<path d="M199.0310 195.0931
L199.9596 195.0931
" />
<path d="M199.9596 195.0931
L199.4596 195.6645
" />
<path d="M199.4596 195.6645
L199.6739 195.6645
" />
<path d="M199.6739 195.6645
L199.8168 195.7359
" />
<path d="M199.8168 195.7359
L199.8882 195.8074
" />
<path d="M199.8882 195.8074
L199.9596 195.9502
" />
<path d="M199.9596 195.9502
L199.9596 196.3074
" />
<path d="M199.9596 196.3074
L199.8882 196.4502
" />
<path d="M199.8882 196.4502
L199.8168 196.5217
" />
<path d="M199.8168 196.5217
L199.6739 196.5931
" />
<path d="M199.6739 196.5931
L199.2453 196.5931
" />
<path d="M199.2453 196.5931
L199.1025 196.5217
" />
<path d="M199.1025 196.5217
L199.0310 196.4502
" />
</g><path d="M177.0022 191.5072
L285.0022 191.5072
" />
</g>
<g style="fill:none; 
stroke:#840000; stroke-width:0.3000; stroke-opacity:1; 
stroke-linecap:round; stroke-linejoin:round;">
<text x="263.0022" y="193.8572"
textLength="6.3858" font-size="2.0000" lengthAdjust="spacingAndGlyphs"
text-anchor="start" opacity="0" stroke-opacity="0">Rev: </text>
<g class="stroked-text"><desc>Rev: </desc>
<path d="M264.4137 193.7855
L263.9137 193.0712
" />
<path d="M263.5566 193.7855
L263.5566 192.2855
" />
<path d="M263.5566 192.2855
L264.1280 192.2855
" />
<path d="M264.1280 192.2855
L264.2709 192.3569
" />
<path d="M264.2709 192.3569
L264.3423 192.4283
" />
<path d="M264.3423 192.4283
L264.4137 192.5712
" />
<path d="M264.4137 192.5712
L264.4137 192.7855
" />
<path d="M264.4137 192.7855
L264.3423 192.9283
" />
<path d="M264.3423 192.9283
L264.2709 192.9998
" />
<path d="M264.2709 192.9998
L264.1280 193.0712
" />
<path d="M264.1280 193.0712
L263.5566 193.0712
" />
<path d="M265.6280 193.7141
L265.4852 193.7855
" />
<path d="M265.4852 193.7855
L265.1995 193.7855
" />
<path d="M265.1995 193.7855
L265.0566 193.7141
" />
<path d="M265.0566 193.7141
L264.9852 193.5712
" />
<path d="M264.9852 193.5712
L264.9852 192.9998
" />
<path d="M264.9852 192.9998
L265.0566 192.8569
" />
<path d="M265.0566 192.8569
L265.1995 192.7855
" />
<path d="M265.1995 192.7855
L265.4852 192.7855
" />
<path d="M265.4852 192.7855
L265.6280 192.8569
" />
<path d="M265.6280 192.8569
L265.6995 192.9998
" />
<path d="M265.6995 192.9998
L265.6995 193.1426
" />
<path d="M265.6995 193.1426
L264.9852 193.2855
" />
<path d="M266.1994 192.7855
L266.5566 193.7855
" />
<path d="M266.5566 193.7855
L266.9137 192.7855
" />
<path d="M267.4852 193.6426
L267.5566 193.7141
" />
<path d="M267.5566 193.7141
L267.4852 193.7855
" />
<path d="M267.4852 193.7855
L267.4138 193.7141
" />
<path d="M267.4138 193.7141
L267.4852 193.6426
" />
<path d="M267.4852 193.6426
L267.4852 193.7855
" />
<path d="M267.4852 192.8569
L267.5566 192.9283
" />
<path d="M267.5566 192.9283
L267.4852 192.9998
" />
<path d="M267.4852 192.9998
L267.4138 192.9283
" />
<path d="M267.4138 192.9283
L267.4852 192.8569
" />
<path d="M267.4852 192.8569
L267.4852 192.9998
" />
</g></g>
<g style="fill:none; 
stroke:#840000; stroke-width:0.1524; stroke-opacity:1; 
stroke-linecap:round; stroke-linejoin:round;">
<text x="178.0022" y="193.8572"
textLength="9.3716" font-size="2.0000" lengthAdjust="spacingAndGlyphs"
text-anchor="start" opacity="0" stroke-opacity="0">Size: A4</text>
<g class="stroked-text"><desc>Size: A4</desc>
<path d="M178.3881 193.7217
L178.6024 193.7931
" />
<path d="M178.6024 193.7931
L178.9595 193.7931
" />
<path d="M178.9595 193.7931
L179.1024 193.7217
" />
<path d="M179.1024 193.7217
L179.1738 193.6502
" />
<path d="M179.1738 193.6502
L179.2452 193.5074
" />
<path d="M179.2452 193.5074
L179.2452 193.3645
" />
<path d="M179.2452 193.3645
L179.1738 193.2217
" />
<path d="M179.1738 193.2217
L179.1024 193.1502
" />
<path d="M179.1024 193.1502
L178.9595 193.0788
" />
<path d="M178.9595 193.0788
L178.6738 193.0074
" />
<path d="M178.6738 193.0074
L178.5309 192.9359
" />
<path d="M178.5309 192.9359
L178.4595 192.8645
" />
<path d="M178.4595 192.8645
L178.3881 192.7217
" />
<path d="M178.3881 192.7217
L178.3881 192.5788
" />
<path d="M178.3881 192.5788
L178.4595 192.4359
" />
<path d="M178.4595 192.4359
L178.5309 192.3645
" />
<path d="M178.5309 192.3645
L178.6738 192.2931
" />
<path d="M178.6738 192.2931
L179.0309 192.2931
" />
<path d="M179.0309 192.2931
L179.2452 192.3645
" />
<path d="M179.8881 193.7931
L179.8881 192.7931
" />
<path d="M179.8881 192.2931
L179.8167 192.3645
" />
<path d="M179.8167 192.3645
L179.8881 192.4359
" />
<path d="M179.8881 192.4359
L179.9595 192.3645
" />
<path d="M179.9595 192.3645
L179.8881 192.2931
" />
<path d="M179.8881 192.2931
L179.8881 192.4359
" />
<path d="M180.4595 192.7931
L181.2453 192.7931
" />
<path d="M181.2453 192.7931
L180.4595 193.7931
" />
<path d="M180.4595 193.7931
L181.2453 193.7931
" />
<path d="M182.3881 193.7217
L182.2453 193.7931
" />
<path d="M182.2453 193.7931
L181.9596 193.7931
" />
<path d="M181.9596 193.7931
L181.8167 193.7217
" />
<path d="M181.8167 193.7217
L181.7453 193.5788
" />
<path d="M181.7453 193.5788
L181.7453 193.0074
" />
<path d="M181.7453 193.0074
L181.8167 192.8645
" />
<path d="M181.8167 192.8645
L181.9596 192.7931
" />
<path d="M181.9596 192.7931
L182.2453 192.7931
" />
<path d="M182.2453 192.7931
L182.3881 192.8645
" />
<path d="M182.3881 192.8645
L182.4596 193.0074
" />
<path d="M182.4596 193.0074
L182.4596 193.1502
" />
<path d="M182.4596 193.1502
L181.7453 193.2931
" />
<path d="M183.1024 193.6502
L183.1738 193.7217
" />
<path d="M183.1738 193.7217
L183.1024 193.7931
" />
<path d="M183.1024 193.7931
L183.0310 193.7217
" />
<path d="M183.0310 193.7217
L183.1024 193.6502
" />
<path d="M183.1024 193.6502
L183.1024 193.7931
" />
<path d="M183.1024 192.8645
L183.1738 192.9359
" />
<path d="M183.1738 192.9359
L183.1024 193.0074
" />
<path d="M183.1024 193.0074
L183.0310 192.9359
" />
<path d="M183.0310 192.9359
L183.1024 192.8645
" />
<path d="M183.1024 192.8645
L183.1024 193.0074
" />
<path d="M184.8882 193.3645
L185.6025 193.3645
" />
<path d="M184.7453 193.7931
L185.2453 192.2931
" />
<path d="M185.2453 192.2931
L185.7453 193.7931
" />
<path d="M186.8882 192.7931
L186.8882 193.7931
" />
<path d="M186.5310 192.2217
L186.1739 193.2931
" />
<path d="M186.1739 193.2931
L187.1024 193.2931
" />
</g><text x="263.0022" y="196.6572"
textLength="8.5144" font-size="2.0000" lengthAdjust="spacingAndGlyphs"
text-anchor="start" opacity="0" stroke-opacity="0">Id: 6/6</text>
<g class="stroked-text"><desc>Id: 6/6</desc>
<path d="M263.4595 196.5931
L263.4595 195.0931
" />
<path d="M264.8167 196.5931
L264.8167 195.0931
" />
<path d="M264.8167 196.5217
L264.6738 196.5931
" />
<path d="M264.6738 196.5931
L264.3881 196.5931
" />
<path d="M264.3881 196.5931
L264.2452 196.5217
" />
<path d="M264.2452 196.5217
L264.1738 196.4502
" />
<path d="M264.1738 196.4502
L264.1024 196.3074
" />
<path d="M264.1024 196.3074
L264.1024 195.8788
" />
<path d="M264.1024 195.8788
L264.1738 195.7359
" />
<path d="M264.1738 195.7359
L264.2452 195.6645
" />
<path d="M264.2452 195.6645
L264.3881 195.5931
" />
<path d="M264.3881 195.5931
L264.6738 195.5931
" />
<path d="M264.6738 195.5931
L264.8167 195.6645
" />
<path d="M265.5309 196.4502
L265.6023 196.5217
" />
<path d="M265.6023 196.5217
L265.5309 196.5931
" />
<path d="M265.5309 196.5931
L265.4595 196.5217
" />
<path d="M265.4595 196.5217
L265.5309 196.4502
" />
<path d="M265.5309 196.4502
L265.5309 196.5931
" />
<path d="M265.5309 195.6645
L265.6023 195.7359
" />
<path d="M265.6023 195.7359
L265.5309 195.8074
" />
<path d="M265.5309 195.8074
L265.4595 195.7359
" />
<path d="M265.4595 195.7359
L265.5309 195.6645
" />
<path d="M265.5309 195.6645
L265.5309 195.8074
" />
<path d="M268.0310 195.0931
L267.7452 195.0931
" />
<path d="M267.7452 195.0931
L267.6024 195.1645
" />
<path d="M267.6024 195.1645
L267.5310 195.2359
" />
<path d="M267.5310 195.2359
L267.3881 195.4502
" />
<path d="M267.3881 195.4502
L267.3167 195.7359
" />
<path d="M267.3167 195.7359
L267.3167 196.3074
" />
<path d="M267.3167 196.3074
L267.3881 196.4502
" />
<path d="M267.3881 196.4502
L267.4595 196.5217
" />
<path d="M267.4595 196.5217
L267.6024 196.5931
" />
<path d="M267.6024 196.5931
L267.8881 196.5931
" />
<path d="M267.8881 196.5931
L268.0310 196.5217
" />
<path d="M268.0310 196.5217
L268.1024 196.4502
" />
<path d="M268.1024 196.4502
L268.1738 196.3074
" />
<path d="M268.1738 196.3074
L268.1738 195.9502
" />
<path d="M268.1738 195.9502
L268.1024 195.8074
" />
<path d="M268.1024 195.8074
L268.0310 195.7359
" />
<path d="M268.0310 195.7359
L267.8881 195.6645
" />
<path d="M267.8881 195.6645
L267.6024 195.6645
" />
<path d="M267.6024 195.6645
L267.4595 195.7359
" />
<path d="M267.4595 195.7359
L267.3881 195.8074
" />
<path d="M267.3881 195.8074
L267.3167 195.9502
" />
<path d="M269.8881 195.0217
L268.6024 196.9502
" />
<path d="M271.0310 195.0931
L270.7452 195.0931
" />
<path d="M270.7452 195.0931
L270.6024 195.1645
" />
<path d="M270.6024 195.1645
L270.5310 195.2359
" />
<path d="M270.5310 195.2359
L270.3881 195.4502
" />
<path d="M270.3881 195.4502
L270.3167 195.7359
" />
<path d="M270.3167 195.7359
L270.3167 196.3074
" />
<path d="M270.3167 196.3074
L270.3881 196.4502
" />
<path d="M270.3881 196.4502
L270.4595 196.5217
" />
<path d="M270.4595 196.5217
L270.6024 196.5931
" />
<path d="M270.6024 196.5931
L270.8881 196.5931
" />
<path d="M270.8881 196.5931
L271.0310 196.5217
" />
<path d="M271.0310 196.5217
L271.1024 196.4502
" />
<path d="M271.1024 196.4502
L271.1738 196.3074
" />
<path d="M271.1738 196.3074
L271.1738 195.9502
" />
<path d="M271.1738 195.9502
L271.1024 195.8074
" />
<path d="M271.1024 195.8074
L271.0310 195.7359
" />
<path d="M271.0310 195.7359
L270.8881 195.6645
" />
<path d="M270.8881 195.6645
L270.6024 195.6645
" />
<path d="M270.6024 195.6645
L270.4595 195.7359
" />
<path d="M270.4595 195.7359
L270.3881 195.8074
" />
<path d="M270.3881 195.8074
L270.3167 195.9502
" />
</g><path d="M177.0022 187.5072
L285.0022 187.5072
" />
</g>
<g style="fill:none; 
stroke:#840000; stroke-width:0.4000; stroke-opacity:1; 
stroke-linecap:round; stroke-linejoin:round;">
<text x="178.0022" y="190.3072"
textLength="9.6572" font-size="2.6666" lengthAdjust="spacingAndGlyphs"
text-anchor="start" opacity="0" stroke-opacity="0">Title: </text>
<g class="stroked-text"><desc>Title: </desc>
<path d="M178.6938 188.2116
L179.8367 188.2116
" />
<path d="M179.0153 190.2116
L179.2653 188.2116
" />
<path d="M180.2533 190.2116
L180.4200 188.8783
" />
<path d="M180.5033 188.2116
L180.3962 188.3068
" />
<path d="M180.3962 188.3068
L180.4795 188.4021
" />
<path d="M180.4795 188.4021
L180.5867 188.3068
" />
<path d="M180.5867 188.3068
L180.5033 188.2116
" />
<path d="M180.5033 188.2116
L180.4795 188.4021
" />
<path d="M181.0867 188.8783
L181.8486 188.8783
" />
<path d="M181.4557 188.2116
L181.2415 189.9259
" />
<path d="M181.2415 189.9259
L181.3129 190.1164
" />
<path d="M181.3129 190.1164
L181.4915 190.2116
" />
<path d="M181.4915 190.2116
L181.6819 190.2116
" />
<path d="M182.6344 190.2116
L182.4558 190.1164
" />
<path d="M182.4558 190.1164
L182.3844 189.9259
" />
<path d="M182.3844 189.9259
L182.5986 188.2116
" />
<path d="M184.1700 190.1164
L183.9677 190.2116
" />
<path d="M183.9677 190.2116
L183.5867 190.2116
" />
<path d="M183.5867 190.2116
L183.4081 190.1164
" />
<path d="M183.4081 190.1164
L183.3367 189.9259
" />
<path d="M183.3367 189.9259
L183.4320 189.1640
" />
<path d="M183.4320 189.1640
L183.5510 188.9735
" />
<path d="M183.5510 188.9735
L183.7534 188.8783
" />
<path d="M183.7534 188.8783
L184.1343 188.8783
" />
<path d="M184.1343 188.8783
L184.3129 188.9735
" />
<path d="M184.3129 188.9735
L184.3843 189.1640
" />
<path d="M184.3843 189.1640
L184.3605 189.3544
" />
<path d="M184.3605 189.3544
L183.3843 189.5449
" />
<path d="M185.1343 190.0211
L185.2177 190.1164
" />
<path d="M185.2177 190.1164
L185.1105 190.2116
" />
<path d="M185.1105 190.2116
L185.0272 190.1164
" />
<path d="M185.0272 190.1164
L185.1343 190.0211
" />
<path d="M185.1343 190.0211
L185.1105 190.2116
" />
<path d="M185.2653 188.9735
L185.3486 189.0687
" />
<path d="M185.3486 189.0687
L185.2415 189.1640
" />
<path d="M185.2415 189.1640
L185.1582 189.0687
" />
<path d="M185.1582 189.0687
L185.2653 188.9735
" />
<path d="M185.2653 188.9735
L185.2415 189.1640
" />
</g></g>
<g style="fill:none; 
stroke:#840000; stroke-width:0.1524; stroke-opacity:1; 
stroke-linecap:round; stroke-linejoin:round;">
<text x="178.0022" y="186.4572"
textLength="27.7998" font-size="2.0000" lengthAdjust="spacingAndGlyphs"
text-anchor="start" opacity="0" stroke-opacity="0">File: Mounting.kicad_sch</text>
<g class="stroked-text"><desc>File: Mounting.kicad_sch</desc>
<path d="M178.9595 185.6074
L178.4595 185.6074
" />
<path d="M178.4595 186.3931
L178.4595 184.8931
" />
<path d="M178.4595 184.8931
L179.1738 184.8931
" />
<path d="M179.7452 186.3931
L179.7452 185.3931
" />
<path d="M179.7452 184.8931
L179.6738 184.9645
" />
<path d="M179.6738 184.9645
L179.7452 185.0359
" />
<path d="M179.7452 185.0359
L179.8166 184.9645
" />
<path d="M179.8166 184.9645
L179.7452 184.8931
" />
<path d="M179.7452 184.8931
L179.7452 185.0359
" />
<path d="M180.6738 186.3931
L180.5309 186.3217
" />
<path d="M180.5309 186.3217
L180.4595 186.1788
" />
<path d="M180.4595 186.1788
L180.4595 184.8931
" />
<path d="M181.8166 186.3217
L181.6738 186.3931
" />
<path d="M181.6738 186.3931
L181.3881 186.3931
" />
<path d="M181.3881 186.3931
L181.2452 186.3217
" />
<path d="M181.2452 186.3217
L181.1738 186.1788
" />
<path d="M181.1738 186.1788
L181.1738 185.6074
" />
<path d="M181.1738 185.6074
L181.2452 185.4645
" />
<path d="M181.2452 185.4645
L181.3881 185.3931
" />
<path d="M181.3881 185.3931
L181.6738 185.3931
" />
<path d="M181.6738 185.3931
L181.8166 185.4645
" />
<path d="M181.8166 185.4645
L181.8881 185.6074
" />
<path d="M181.8881 185.6074
L181.8881 185.7502
" />
<path d="M181.8881 185.7502
L181.1738 185.8931
" />
<path d="M182.5309 186.2502
L182.6023 186.3217
" />
<path d="M182.6023 186.3217
L182.5309 186.3931
" />
<path d="M182.5309 186.3931
L182.4595 186.3217
" />
<path d="M182.4595 186.3217
L182.5309 186.2502
" />
<path d="M182.5309 186.2502
L182.5309 186.3931
" />
<path d="M182.5309 185.4645
L182.6023 185.5359
" />
<path d="M182.6023 185.5359
L182.5309 185.6074
" />
<path d="M182.5309 185.6074
L182.4595 185.5359
" />
<path d="M182.4595 185.5359
L182.5309 185.4645
" />
<path d="M182.5309 185.4645
L182.5309 185.6074
" />
<path d="M184.3881 186.3931
L184.3881 184.8931
" />
<path d="M184.3881 184.8931
L184.8881 185.9645
" />
<path d="M184.8881 185.9645
L185.3881 184.8931
" />
<path d="M185.3881 184.8931
L185.3881 186.3931
" />
<path d="M186.3167 186.3931
L186.1738 186.3217
" />
<path d="M186.1738 186.3217
L186.1024 186.2502
" />
<path d="M186.1024 186.2502
L186.0310 186.1074
" />
<path d="M186.0310 186.1074
L186.0310 185.6788
" />
<path d="M186.0310 185.6788
L186.1024 185.5359
" />
<path d="M186.1024 185.5359
L186.1738 185.4645
" />
<path d="M186.1738 185.4645
L186.3167 185.3931
" />
<path d="M186.3167 185.3931
L186.5310 185.3931
" />
<path d="M186.5310 185.3931
L186.6738 185.4645
" />
<path d="M186.6738 185.4645
L186.7453 185.5359
" />
<path d="M186.7453 185.5359
L186.8167 185.6788
" />
<path d="M186.8167 185.6788
L186.8167 186.1074
" />
<path d="M186.8167 186.1074
L186.7453 186.2502
" />
<path d="M186.7453 186.2502
L186.6738 186.3217
" />
<path d="M186.6738 186.3217
L186.5310 186.3931
" />
<path d="M186.5310 186.3931
L186.3167 186.3931
" />
<path d="M188.1024 185.3931
L188.1024 186.3931
" />
<path d="M187.4595 185.3931
L187.4595 186.1788
" />
<path d="M187.4595 186.1788
L187.5309 186.3217
" />
<path d="M187.5309 186.3217
L187.6738 186.3931
" />
<path d="M187.6738 186.3931
L187.8881 186.3931
" />
<path d="M187.8881 186.3931
L188.0309 186.3217
" />
<path d="M188.0309 186.3217
L188.1024 186.2502
" />
<path d="M188.8166 185.3931
L188.8166 186.3931
" />
<path d="M188.8166 185.5359
L188.8880 185.4645
" />
<path d="M188.8880 185.4645
L189.0309 185.3931
" />
<path d="M189.0309 185.3931
L189.2452 185.3931
" />
<path d="M189.2452 185.3931
L189.3880 185.4645
" />
<path d="M189.3880 185.4645
L189.4595 185.6074
" />
<path d="M189.4595 185.6074
L189.4595 186.3931
" />
<path d="M189.9594 185.3931
L190.5308 185.3931
" />
<path d="M190.1737 184.8931
L190.1737 186.1788
" />
<path d="M190.1737 186.1788
L190.2451 186.3217
" />
<path d="M190.2451 186.3217
L190.3880 186.3931
" />
<path d="M190.3880 186.3931
L190.5308 186.3931
" />
<path d="M191.0308 186.3931
L191.0308 185.3931
" />
<path d="M191.0308 184.8931
L190.9594 184.9645
" />
<path d="M190.9594 184.9645
L191.0308 185.0359
" />
<path d="M191.0308 185.0359
L191.1022 184.9645
" />
<path d="M191.1022 184.9645
L191.0308 184.8931
" />
<path d="M191.0308 184.8931
L191.0308 185.0359
" />
<path d="M191.7451 185.3931
L191.7451 186.3931
" />
<path d="M191.7451 185.5359
L191.8165 185.4645
" />
<path d="M191.8165 185.4645
L191.9594 185.3931
" />
<path d="M191.9594 185.3931
L192.1737 185.3931
" />
<path d="M192.1737 185.3931
L192.3165 185.4645
" />
<path d="M192.3165 185.4645
L192.3880 185.6074
" />
<path d="M192.3880 185.6074
L192.3880 186.3931
" />
<path d="M193.7451 185.3931
L193.7451 186.6074
" />
<path d="M193.7451 186.6074
L193.6736 186.7502
" />
<path d="M193.6736 186.7502
L193.6022 186.8217
" />
<path d="M193.6022 186.8217
L193.4593 186.8931
" />
<path d="M193.4593 186.8931
L193.2451 186.8931
" />
<path d="M193.2451 186.8931
L193.1022 186.8217
" />
<path d="M193.7451 186.3217
L193.6022 186.3931
" />
<path d="M193.6022 186.3931
L193.3165 186.3931
" />
<path d="M193.3165 186.3931
L193.1736 186.3217
" />
<path d="M193.1736 186.3217
L193.1022 186.2502
" />
<path d="M193.1022 186.2502
L193.0308 186.1074
" />
<path d="M193.0308 186.1074
L193.0308 185.6788
" />
<path d="M193.0308 185.6788
L193.1022 185.5359
" />
<path d="M193.1022 185.5359
L193.1736 185.4645
" />
<path d="M193.1736 185.4645
L193.3165 185.3931
" />
<path d="M193.3165 185.3931
L193.6022 185.3931
" />
<path d="M193.6022 185.3931
L193.7451 185.4645
" />
<path d="M194.4593 186.2502
L194.5307 186.3217
" />
<path d="M194.5307 186.3217
L194.4593 186.3931
" />
<path d="M194.4593 186.3931
L194.3879 186.3217
" />
<path d="M194.3879 186.3217
L194.4593 186.2502
" />
<path d="M194.4593 186.2502
L194.4593 186.3931
" />
<path d="M195.1736 186.3931
L195.1736 184.8931
" />
<path d="M195.3165 185.8217
L195.7450 186.3931
" />
<path d="M195.7450 185.3931
L195.1736 185.9645
" />
<path d="M196.3879 186.3931
L196.3879 185.3931
" />
<path d="M196.3879 184.8931
L196.3165 184.9645
" />
<path d="M196.3165 184.9645
L196.3879 185.0359
" />
<path d="M196.3879 185.0359
L196.4593 184.9645
" />
<path d="M196.4593 184.9645
L196.3879 184.8931
" />
<path d="M196.3879 184.8931
L196.3879 185.0359
" />
<path d="M197.7451 186.3217
L197.6022 186.3931
" />
<path d="M197.6022 186.3931
L197.3165 186.3931
" />
<path d="M197.3165 186.3931
L197.1736 186.3217
" />
<path d="M197.1736 186.3217
L197.1022 186.2502
" />
<path d="M197.1022 186.2502
L197.0308 186.1074
" />
<path d="M197.0308 186.1074
L197.0308 185.6788
" />
<path d="M197.0308 185.6788
L197.1022 185.5359
" />
<path d="M197.1022 185.5359
L197.1736 185.4645
" />
<path d="M197.1736 185.4645
L197.3165 185.3931
" />
<path d="M197.3165 185.3931
L197.6022 185.3931
" />
<path d="M197.6022 185.3931
L197.7451 185.4645
" />
<path d="M199.0308 186.3931
L199.0308 185.6074
" />
<path d="M199.0308 185.6074
L198.9593 185.4645
" />
<path d="M198.9593 185.4645
L198.8165 185.3931
" />
<path d="M198.8165 185.3931
L198.5308 185.3931
" />
<path d="M198.5308 185.3931
L198.3879 185.4645
" />
<path d="M199.0308 186.3217
L198.8879 186.3931
" />
<path d="M198.8879 186.3931
L198.5308 186.3931
" />
<path d="M198.5308 186.3931
L198.3879 186.3217
" />
<path d="M198.3879 186.3217
L198.3165 186.1788
" />
<path d="M198.3165 186.1788
L198.3165 186.0359
" />
<path d="M198.3165 186.0359
L198.3879 185.8931
" />
<path d="M198.3879 185.8931
L198.5308 185.8217
" />
<path d="M198.5308 185.8217
L198.8879 185.8217
" />
<path d="M198.8879 185.8217
L199.0308 185.7502
" />
<path d="M200.3879 186.3931
L200.3879 184.8931
" />
<path d="M200.3879 186.3217
L200.2450 186.3931
" />
<path d="M200.2450 186.3931
L199.9593 186.3931
" />
<path d="M199.9593 186.3931
L199.8164 186.3217
" />
<path d="M199.8164 186.3217
L199.7450 186.2502
" />
<path d="M199.7450 186.2502
L199.6736 186.1074
" />
<path d="M199.6736 186.1074
L199.6736 185.6788
" />
<path d="M199.6736 185.6788
L199.7450 185.5359
" />
<path d="M199.7450 185.5359
L199.8164 185.4645
" />
<path d="M199.8164 185.4645
L199.9593 185.3931
" />
<path d="M199.9593 185.3931
L200.2450 185.3931
" />
<path d="M200.2450 185.3931
L200.3879 185.4645
" />
<path d="M200.7450 186.5359
L201.8878 186.5359
" />
<path d="M202.1736 186.3217
L202.3164 186.3931
" />
<path d="M202.3164 186.3931
L202.6021 186.3931
" />
<path d="M202.6021 186.3931
L202.7450 186.3217
" />
<path d="M202.7450 186.3217
L202.8164 186.1788
" />
<path d="M202.8164 186.1788
L202.8164 186.1074
" />
<path d="M202.8164 186.1074
L202.7450 185.9645
" />
<path d="M202.7450 185.9645
L202.6021 185.8931
" />
<path d="M202.6021 185.8931
L202.3879 185.8931
" />
<path d="M202.3879 185.8931
L202.2450 185.8217
" />
<path d="M202.2450 185.8217
L202.1736 185.6788
" />
<path d="M202.1736 185.6788
L202.1736 185.6074
" />
<path d="M202.1736 185.6074
L202.2450 185.4645
" />
<path d="M202.2450 185.4645
L202.3879 185.3931
" />
<path d="M202.3879 185.3931
L202.6021 185.3931
" />
<path d="M202.6021 185.3931
L202.7450 185.4645
" />
<path d="M204.1022 186.3217
L203.9593 186.3931
" />
<path d="M203.9593 186.3931
L203.6736 186.3931
" />
<path d="M203.6736 186.3931
L203.5307 186.3217
" />
<path d="M203.5307 186.3217
L203.4593 186.2502
" />
<path d="M203.4593 186.2502
L203.3879 186.1074
" />
<path d="M203.3879 186.1074
L203.3879 185.6788
" />
<path d="M203.3879 185.6788
L203.4593 185.5359
" />
<path d="M203.4593 185.5359
L203.5307 185.4645
" />
<path d="M203.5307 185.4645
L203.6736 185.3931
" />
<path d="M203.6736 185.3931
L203.9593 185.3931
" />
<path d="M203.9593 185.3931
L204.1022 185.4645
" />
<path d="M204.7450 186.3931
L204.7450 184.8931
" />
<path d="M205.3879 186.3931
L205.3879 185.6074
" />
<path d="M205.3879 185.6074
L205.3164 185.4645
" />
<path d="M205.3164 185.4645
L205.1736 185.3931
" />
<path d="M205.1736 185.3931
L204.9593 185.3931
" />
<path d="M204.9593 185.3931
L204.8164 185.4645
" />
<path d="M204.8164 185.4645
L204.7450 185.5359
" />
</g><path d="M177.0022 181.5072
L285.0022 181.5072
" />
<text x="178.0022" y="183.7572"
textLength="28.7997" font-size="2.0000" lengthAdjust="spacingAndGlyphs"
text-anchor="start" opacity="0" stroke-opacity="0">Sheet: /Mounting Holes/</text>
<g class="stroked-text"><desc>Sheet: /Mounting Holes/</desc>
<path d="M178.3881 183.6217
L178.6024 183.6931
" />
<path d="M178.6024 183.6931
L178.9595 183.6931
" />
<path d="M178.9595 183.6931
L179.1024 183.6217
" />
<path d="M179.1024 183.6217
L179.1738 183.5502
" />
<path d="M179.1738 183.5502
L179.2452 183.4074
" />
<path d="M179.2452 183.4074
L179.2452 183.2645
" />
<path d="M179.2452 183.2645
L179.1738 183.1217
" />
<path d="M179.1738 183.1217
L179.1024 183.0502
" />
<path d="M179.1024 183.0502
L178.9595 182.9788
" />
<path d="M178.9595 182.9788
L178.6738 182.9074
" />
<path d="M178.6738 182.9074
L178.5309 182.8359
" />
<path d="M178.5309 182.8359
L178.4595 182.7645
" />
<path d="M178.4595 182.7645
L178.3881 182.6217
" />
<path d="M178.3881 182.6217
L178.3881 182.4788
" />
<path d="M178.3881 182.4788
L178.4595 182.3359
" />
<path d="M178.4595 182.3359
L178.5309 182.2645
" />
<path d="M178.5309 182.2645
L178.6738 182.1931
" />
<path d="M178.6738 182.1931
L179.0309 182.1931
" />
<path d="M179.0309 182.1931
L179.2452 182.2645
" />
<path d="M179.8881 183.6931
L179.8881 182.1931
" />
<path d="M180.5310 183.6931
L180.5310 182.9074
" />
<path d="M180.5310 182.9074
L180.4595 182.7645
" />
<path d="M180.4595 182.7645
L180.3167 182.6931
" />
<path d="M180.3167 182.6931
L180.1024 182.6931
" />
<path d="M180.1024 182.6931
L179.9595 182.7645
" />
<path d="M179.9595 182.7645
L179.8881 182.8359
" />
<path d="M181.8166 183.6217
L181.6738 183.6931
" />
<path d="M181.6738 183.6931
L181.3881 183.6931
" />
<path d="M181.3881 183.6931
L181.2452 183.6217
" />
<path d="M181.2452 183.6217
L181.1738 183.4788
" />
<path d="M181.1738 183.4788
L181.1738 182.9074
" />
<path d="M181.1738 182.9074
L181.2452 182.7645
" />
<path d="M181.2452 182.7645
L181.3881 182.6931
" />
<path d="M181.3881 182.6931
L181.6738 182.6931
" />
<path d="M181.6738 182.6931
L181.8166 182.7645
" />
<path d="M181.8166 182.7645
L181.8881 182.9074
" />
<path d="M181.8881 182.9074
L181.8881 183.0502
" />
<path d="M181.8881 183.0502
L181.1738 183.1931
" />
<path d="M183.1023 183.6217
L182.9595 183.6931
" />
<path d="M182.9595 183.6931
L182.6738 183.6931
" />
<path d="M182.6738 183.6931
L182.5309 183.6217
" />
<path d="M182.5309 183.6217
L182.4595 183.4788
" />
<path d="M182.4595 183.4788
L182.4595 182.9074
" />
<path d="M182.4595 182.9074
L182.5309 182.7645
" />
<path d="M182.5309 182.7645
L182.6738 182.6931
" />
<path d="M182.6738 182.6931
L182.9595 182.6931
" />
<path d="M182.9595 182.6931
L183.1023 182.7645
" />
<path d="M183.1023 182.7645
L183.1738 182.9074
" />
<path d="M183.1738 182.9074
L183.1738 183.0502
" />
<path d="M183.1738 183.0502
L182.4595 183.1931
" />
<path d="M183.6023 182.6931
L184.1737 182.6931
" />
<path d="M183.8166 182.1931
L183.8166 183.4788
" />
<path d="M183.8166 183.4788
L183.8880 183.6217
" />
<path d="M183.8880 183.6217
L184.0309 183.6931
" />
<path d="M184.0309 183.6931
L184.1737 183.6931
" />
<path d="M184.6737 183.5502
L184.7451 183.6217
" />
<path d="M184.7451 183.6217
L184.6737 183.6931
" />
<path d="M184.6737 183.6931
L184.6023 183.6217
" />
<path d="M184.6023 183.6217
L184.6737 183.5502
" />
<path d="M184.6737 183.5502
L184.6737 183.6931
" />
<path d="M184.6737 182.7645
L184.7451 182.8359
" />
<path d="M184.7451 182.8359
L184.6737 182.9074
" />
<path d="M184.6737 182.9074
L184.6023 182.8359
" />
<path d="M184.6023 182.8359
L184.6737 182.7645
" />
<path d="M184.6737 182.7645
L184.6737 182.9074
" />
<path d="M187.6023 182.1217
L186.3166 184.0502
" />
<path d="M188.1023 183.6931
L188.1023 182.1931
" />
<path d="M188.1023 182.1931
L188.6023 183.2645
" />
<path d="M188.6023 183.2645
L189.1023 182.1931
" />
<path d="M189.1023 182.1931
L189.1023 183.6931
" />
<path d="M190.0309 183.6931
L189.8880 183.6217
" />
<path d="M189.8880 183.6217
L189.8166 183.5502
" />
<path d="M189.8166 183.5502
L189.7452 183.4074
" />
<path d="M189.7452 183.4074
L189.7452 182.9788
" />
<path d="M189.7452 182.9788
L189.8166 182.8359
" />
<path d="M189.8166 182.8359
L189.8880 182.7645
" />
<path d="M189.8880 182.7645
L190.0309 182.6931
" />
<path d="M190.0309 182.6931
L190.2452 182.6931
" />
<path d="M190.2452 182.6931
L190.3880 182.7645
" />
<path d="M190.3880 182.7645
L190.4595 182.8359
" />
<path d="M190.4595 182.8359
L190.5309 182.9788
" />
<path d="M190.5309 182.9788
L190.5309 183.4074
" />
<path d="M190.5309 183.4074
L190.4595 183.5502
" />
<path d="M190.4595 183.5502
L190.3880 183.6217
" />
<path d="M190.3880 183.6217
L190.2452 183.6931
" />
<path d="M190.2452 183.6931
L190.0309 183.6931
" />
<path d="M191.8166 182.6931
L191.8166 183.6931
" />
<path d="M191.1737 182.6931
L191.1737 183.4788
" />
<path d="M191.1737 183.4788
L191.2451 183.6217
" />
<path d="M191.2451 183.6217
L191.3880 183.6931
" />
<path d="M191.3880 183.6931
L191.6023 183.6931
" />
<path d="M191.6023 183.6931
L191.7451 183.6217
" />
<path d="M191.7451 183.6217
L191.8166 183.5502
" />
<path d="M192.5308 182.6931
L192.5308 183.6931
" />
<path d="M192.5308 182.8359
L192.6022 182.7645
" />
<path d="M192.6022 182.7645
L192.7451 182.6931
" />
<path d="M192.7451 182.6931
L192.9594 182.6931
" />
<path d="M192.9594 182.6931
L193.1022 182.7645
" />
<path d="M193.1022 182.7645
L193.1737 182.9074
" />
<path d="M193.1737 182.9074
L193.1737 183.6931
" />
<path d="M193.6736 182.6931
L194.2450 182.6931
" />
<path d="M193.8879 182.1931
L193.8879 183.4788
" />
<path d="M193.8879 183.4788
L193.9593 183.6217
" />
<path d="M193.9593 183.6217
L194.1022 183.6931
" />
<path d="M194.1022 183.6931
L194.2450 183.6931
" />
<path d="M194.7450 183.6931
L194.7450 182.6931
" />
<path d="M194.7450 182.1931
L194.6736 182.2645
" />
<path d="M194.6736 182.2645
L194.7450 182.3359
" />
<path d="M194.7450 182.3359
L194.8164 182.2645
" />
<path d="M194.8164 182.2645
L194.7450 182.1931
" />
<path d="M194.7450 182.1931
L194.7450 182.3359
" />
<path d="M195.4593 182.6931
L195.4593 183.6931
" />
<path d="M195.4593 182.8359
L195.5307 182.7645
" />
<path d="M195.5307 182.7645
L195.6736 182.6931
" />
<path d="M195.6736 182.6931
L195.8879 182.6931
" />
<path d="M195.8879 182.6931
L196.0307 182.7645
" />
<path d="M196.0307 182.7645
L196.1022 182.9074
" />
<path d="M196.1022 182.9074
L196.1022 183.6931
" />
<path d="M197.4593 182.6931
L197.4593 183.9074
" />
<path d="M197.4593 183.9074
L197.3878 184.0502
" />
<path d="M197.3878 184.0502
L197.3164 184.1217
" />
<path d="M197.3164 184.1217
L197.1735 184.1931
" />
<path d="M197.1735 184.1931
L196.9593 184.1931
" />
<path d="M196.9593 184.1931
L196.8164 184.1217
" />
<path d="M197.4593 183.6217
L197.3164 183.6931
" />
<path d="M197.3164 183.6931
L197.0307 183.6931
" />
<path d="M197.0307 183.6931
L196.8878 183.6217
" />
<path d="M196.8878 183.6217
L196.8164 183.5502
" />
<path d="M196.8164 183.5502
L196.7450 183.4074
" />
<path d="M196.7450 183.4074
L196.7450 182.9788
" />
<path d="M196.7450 182.9788
L196.8164 182.8359
" />
<path d="M196.8164 182.8359
L196.8878 182.7645
" />
<path d="M196.8878 182.7645
L197.0307 182.6931
" />
<path d="M197.0307 182.6931
L197.3164 182.6931
" />
<path d="M197.3164 182.6931
L197.4593 182.7645
" />
<path d="M199.3164 183.6931
L199.3164 182.1931
" />
<path d="M199.3164 182.9074
L200.1735 182.9074
" />
<path d="M200.1735 183.6931
L200.1735 182.1931
" />
<path d="M201.1021 183.6931
L200.9592 183.6217
" />
<path d="M200.9592 183.6217
L200.8878 183.5502
" />
<path d="M200.8878 183.5502
L200.8164 183.4074
" />
<path d="M200.8164 183.4074
L200.8164 182.9788
" />
<path d="M200.8164 182.9788
L200.8878 182.8359
" />
<path d="M200.8878 182.8359
L200.9592 182.7645
" />
<path d="M200.9592 182.7645
L201.1021 182.6931
" />
<path d="M201.1021 182.6931
L201.3164 182.6931
" />
<path d="M201.3164 182.6931
L201.4592 182.7645
" />
<path d="M201.4592 182.7645
L201.5307 182.8359
" />
<path d="M201.5307 182.8359
L201.6021 182.9788
" />
<path d="M201.6021 182.9788
L201.6021 183.4074
" />
<path d="M201.6021 183.4074
L201.5307 183.5502
" />
<path d="M201.5307 183.5502
L201.4592 183.6217
" />
<path d="M201.4592 183.6217
L201.3164 183.6931
" />
<path d="M201.3164 183.6931
L201.1021 183.6931
" />
<path d="M202.4592 183.6931
L202.3163 183.6217
" />
<path d="M202.3163 183.6217
L202.2449 183.4788
" />
<path d="M202.2449 183.4788
L202.2449 182.1931
" />
<path d="M203.6020 183.6217
L203.4592 183.6931
" />
<path d="M203.4592 183.6931
L203.1735 183.6931
" />
<path d="M203.1735 183.6931
L203.0306 183.6217
" />
<path d="M203.0306 183.6217
L202.9592 183.4788
" />
<path d="M202.9592 183.4788
L202.9592 182.9074
" />
<path d="M202.9592 182.9074
L203.0306 182.7645
" />
<path d="M203.0306 182.7645
L203.1735 182.6931
" />
<path d="M203.1735 182.6931
L203.4592 182.6931
" />
<path d="M203.4592 182.6931
L203.6020 182.7645
" />
<path d="M203.6020 182.7645
L203.6735 182.9074
" />
<path d="M203.6735 182.9074
L203.6735 183.0502
" />
<path d="M203.6735 183.0502
L202.9592 183.1931
" />
<path d="M204.2449 183.6217
L204.3877 183.6931
" />
<path d="M204.3877 183.6931
L204.6734 183.6931
" />
<path d="M204.6734 183.6931
L204.8163 183.6217
" />
<path d="M204.8163 183.6217
L204.8877 183.4788
" />
<path d="M204.8877 183.4788
L204.8877 183.4074
" />
<path d="M204.8877 183.4074
L204.8163 183.2645
" />
<path d="M204.8163 183.2645
L204.6734 183.1931
" />
<path d="M204.6734 183.1931
L204.4592 183.1931
" />
<path d="M204.4592 183.1931
L204.3163 183.1217
" />
<path d="M204.3163 183.1217
L204.2449 182.9788
" />
<path d="M204.2449 182.9788
L204.2449 182.9074
" />
<path d="M204.2449 182.9074
L204.3163 182.7645
" />
<path d="M204.3163 182.7645
L204.4592 182.6931
" />
<path d="M204.4592 182.6931
L204.6734 182.6931
" />
<path d="M204.6734 182.6931
L204.8163 182.7645
" />
<path d="M206.6020 182.1217
L205.3163 184.0502
" />
</g></g>
<g style="fill:none; 
stroke:#840000; stroke-width:0.3000; stroke-opacity:1; 
stroke-linecap:round; stroke-linejoin:round;">
<text x="178.0022" y="180.7572"
textLength="0.9000" font-size="2.0000" lengthAdjust="spacingAndGlyphs"
text-anchor="start" opacity="0" stroke-opacity="0"></text>
<g class="stroked-text"><desc></desc>
</g></g>
<g style="fill:none; 
stroke:#840000; stroke-width:0.1524; stroke-opacity:1; 
stroke-linecap:round; stroke-linejoin:round;">
<text x="178.0022" y="177.7572"
textLength="0.4572" font-size="2.0000" lengthAdjust="spacingAndGlyphs"
text-anchor="start" opacity="0" stroke-opacity="0"></text>
<g class="stroked-text"><desc></desc>
</g><text x="178.0022" y="174.7572"
textLength="0.4572" font-size="2.0000" lengthAdjust="spacingAndGlyphs"
text-anchor="start" opacity="0" stroke-opacity="0"></text>
<g class="stroked-text"><desc></desc>
</g><text x="178.0022" y="171.7572"
textLength="0.4572" font-size="2.0000" lengthAdjust="spacingAndGlyphs"
text-anchor="start" opacity="0" stroke-opacity="0"></text>
<g class="stroked-text"><desc></desc>
</g><text x="178.0022" y="168.7572"
textLength="0.4572" font-size="2.0000" lengthAdjust="spacingAndGlyphs"
text-anchor="start" opacity="0" stroke-opacity="0"></text>
<g class="stroked-text"><desc></desc>
</g><path d="M197.0022 191.5072
L197.0022 194.5072
" />
<path d="M261.0022 191.5072
L261.0022 198.0072
" />
</g>
<g style="fill:none; 
stroke:#840000; stroke-width:1.2700; stroke-opacity:1; 
stroke-linecap:round; stroke-linejoin:round;">
<circle cx="139.7000" cy="96.5200" r="1.2700" /> 
</g>
<g style="fill:none; 
stroke:#008484; stroke-width:0.1524; stroke-opacity:1; 
stroke-linecap:round; stroke-linejoin:round;">
<text x="143.6212" y="95.8849"
textLength="2.7432" font-size="1.6933" lengthAdjust="spacingAndGlyphs"
text-anchor="middle" opacity="0" stroke-opacity="0">H5</text>
<g class="stroked-text"><desc>H5</desc>
<path d="M142.6535 95.8294
L142.6535 94.5594
" />
<path d="M142.6535 95.1642
L143.3792 95.1642
" />
<path d="M143.3792 95.8294
L143.3792 94.5594
" />
<path d="M144.5888 94.5594
L143.9840 94.5594
" />
<path d="M143.9840 94.5594
L143.9236 95.1642
" />
<path d="M143.9236 95.1642
L143.9840 95.1037
" />
<path d="M143.9840 95.1037
L144.1050 95.0432
" />
<path d="M144.1050 95.0432
L144.4074 95.0432
" />
<path d="M144.4074 95.0432
L144.5283 95.1037
" />
<path d="M144.5283 95.1037
L144.5888 95.1642
" />
<path d="M144.5888 95.1642
L144.6493 95.2851
" />
<path d="M144.6493 95.2851
L144.6493 95.5875
" />
<path d="M144.6493 95.5875
L144.5888 95.7085
" />
<path d="M144.5888 95.7085
L144.5283 95.7690
" />
<path d="M144.5283 95.7690
L144.4074 95.8294
" />
<path d="M144.4074 95.8294
L144.1050 95.8294
" />
<path d="M144.1050 95.8294
L143.9840 95.7690
" />
<path d="M143.9840 95.7690
L143.9236 95.7085
" />
</g><text x="148.7313" y="98.4249"
textLength="12.9634" font-size="1.6933" lengthAdjust="spacingAndGlyphs"
text-anchor="middle" opacity="0" stroke-opacity="0">MountingHole</text>
<g class="stroked-text"><desc>MountingHole</desc>
<path d="M142.6535 98.3694
L142.6535 97.0994
" />
<path d="M142.6535 97.0994
L143.0769 98.0066
" />
<path d="M143.0769 98.0066
L143.5002 97.0994
" />
<path d="M143.5002 97.0994
L143.5002 98.3694
" />
<path d="M144.2864 98.3694
L144.1654 98.3090
" />
<path d="M144.1654 98.3090
L144.1049 98.2485
" />
<path d="M144.1049 98.2485
L144.0445 98.1275
" />
<path d="M144.0445 98.1275
L144.0445 97.7647
" />
<path d="M144.0445 97.7647
L144.1049 97.6437
" />
<path d="M144.1049 97.6437
L144.1654 97.5832
" />
<path d="M144.1654 97.5832
L144.2864 97.5228
" />
<path d="M144.2864 97.5228
L144.4678 97.5228
" />
<path d="M144.4678 97.5228
L144.5887 97.5832
" />
<path d="M144.5887 97.5832
L144.6492 97.6437
" />
<path d="M144.6492 97.6437
L144.7097 97.7647
" />
<path d="M144.7097 97.7647
L144.7097 98.1275
" />
<path d="M144.7097 98.1275
L144.6492 98.2485
" />
<path d="M144.6492 98.2485
L144.5887 98.3090
" />
<path d="M144.5887 98.3090
L144.4678 98.3694
" />
<path d="M144.4678 98.3694
L144.2864 98.3694
" />
<path d="M145.7982 97.5228
L145.7982 98.3694
" />
<path d="M145.2539 97.5228
L145.2539 98.1880
" />
<path d="M145.2539 98.1880
L145.3144 98.3090
" />
<path d="M145.3144 98.3090
L145.4354 98.3694
" />
<path d="M145.4354 98.3694
L145.6168 98.3694
" />
<path d="M145.6168 98.3694
L145.7377 98.3090
" />
<path d="M145.7377 98.3090
L145.7982 98.2485
" />
<path d="M146.4029 97.5228
L146.4029 98.3694
" />
<path d="M146.4029 97.6437
L146.4634 97.5832
" />
<path d="M146.4634 97.5832
L146.5844 97.5228
" />
<path d="M146.5844 97.5228
L146.7658 97.5228
" />
<path d="M146.7658 97.5228
L146.8867 97.5832
" />
<path d="M146.8867 97.5832
L146.9472 97.7042
" />
<path d="M146.9472 97.7042
L146.9472 98.3694
" />
<path d="M147.3705 97.5228
L147.8543 97.5228
" />
<path d="M147.5519 97.0994
L147.5519 98.1880
" />
<path d="M147.5519 98.1880
L147.6124 98.3090
" />
<path d="M147.6124 98.3090
L147.7334 98.3694
" />
<path d="M147.7334 98.3694
L147.8543 98.3694
" />
<path d="M148.2776 98.3694
L148.2776 97.5228
" />
<path d="M148.2776 97.0994
L148.2172 97.1599
" />
<path d="M148.2172 97.1599
L148.2776 97.2204
" />
<path d="M148.2776 97.2204
L148.3381 97.1599
" />
<path d="M148.3381 97.1599
L148.2776 97.0994
" />
<path d="M148.2776 97.0994
L148.2776 97.2204
" />
<path d="M148.8824 97.5228
L148.8824 98.3694
" />
<path d="M148.8824 97.6437
L148.9429 97.5832
" />
<path d="M148.9429 97.5832
L149.0639 97.5228
" />
<path d="M149.0639 97.5228
L149.2453 97.5228
" />
<path d="M149.2453 97.5228
L149.3662 97.5832
" />
<path d="M149.3662 97.5832
L149.4267 97.7042
" />
<path d="M149.4267 97.7042
L149.4267 98.3694
" />
<path d="M150.5757 97.5228
L150.5757 98.5509
" />
<path d="M150.5757 98.5509
L150.5152 98.6718
" />
<path d="M150.5152 98.6718
L150.4548 98.7323
" />
<path d="M150.4548 98.7323
L150.3338 98.7928
" />
<path d="M150.3338 98.7928
L150.1524 98.7928
" />
<path d="M150.1524 98.7928
L150.0314 98.7323
" />
<path d="M150.5757 98.3090
L150.4548 98.3694
" />
<path d="M150.4548 98.3694
L150.2129 98.3694
" />
<path d="M150.2129 98.3694
L150.0919 98.3090
" />
<path d="M150.0919 98.3090
L150.0314 98.2485
" />
<path d="M150.0314 98.2485
L149.9710 98.1275
" />
<path d="M149.9710 98.1275
L149.9710 97.7647
" />
<path d="M149.9710 97.7647
L150.0314 97.6437
" />
<path d="M150.0314 97.6437
L150.0919 97.5832
" />
<path d="M150.0919 97.5832
L150.2129 97.5228
" />
<path d="M150.2129 97.5228
L150.4548 97.5228
" />
<path d="M150.4548 97.5228
L150.5757 97.5832
" />
<path d="M151.1804 98.3694
L151.1804 97.0994
" />
<path d="M151.1804 97.7042
L151.9061 97.7042
" />
<path d="M151.9061 98.3694
L151.9061 97.0994
" />
<path d="M152.6924 98.3694
L152.5714 98.3090
" />
<path d="M152.5714 98.3090
L152.5109 98.2485
" />
<path d="M152.5109 98.2485
L152.4505 98.1275
" />
<path d="M152.4505 98.1275
L152.4505 97.7647
" />
<path d="M152.4505 97.7647
L152.5109 97.6437
" />
<path d="M152.5109 97.6437
L152.5714 97.5832
" />
<path d="M152.5714 97.5832
L152.6924 97.5228
" />
<path d="M152.6924 97.5228
L152.8738 97.5228
" />
<path d="M152.8738 97.5228
L152.9947 97.5832
" />
<path d="M152.9947 97.5832
L153.0552 97.6437
" />
<path d="M153.0552 97.6437
L153.1157 97.7647
" />
<path d="M153.1157 97.7647
L153.1157 98.1275
" />
<path d="M153.1157 98.1275
L153.0552 98.2485
" />
<path d="M153.0552 98.2485
L152.9947 98.3090
" />
<path d="M152.9947 98.3090
L152.8738 98.3694
" />
<path d="M152.8738 98.3694
L152.6924 98.3694
" />
<path d="M153.8414 98.3694
L153.7204 98.3090
" />
<path d="M153.7204 98.3090
L153.6599 98.1880
" />
<path d="M153.6599 98.1880
L153.6599 97.0994
" />
<path d="M154.8089 98.3090
L154.6880 98.3694
" />
<path d="M154.6880 98.3694
L154.4461 98.3694
" />
<path d="M154.4461 98.3694
L154.3251 98.3090
" />
<path d="M154.3251 98.3090
L154.2647 98.1880
" />
<path d="M154.2647 98.1880
L154.2647 97.7042
" />
<path d="M154.2647 97.7042
L154.3251 97.5832
" />
<path d="M154.3251 97.5832
L154.4461 97.5228
" />
<path d="M154.4461 97.5228
L154.6880 97.5228
" />
<path d="M154.6880 97.5228
L154.8089 97.5832
" />
<path d="M154.8089 97.5832
L154.8694 97.7042
" />
<path d="M154.8694 97.7042
L154.8694 97.8251
" />
<path d="M154.8694 97.8251
L154.2647 97.9461
" />
</g></g>
<g style="fill:none; 
stroke:#840000; stroke-width:1.2700; stroke-opacity:1; 
stroke-linecap:round; stroke-linejoin:round;">
<circle cx="115.5700" cy="96.5200" r="1.2700" /> 
</g>
<g style="fill:none; 
stroke:#008484; stroke-width:0.1524; stroke-opacity:1; 
stroke-linecap:round; stroke-linejoin:round;">
<text x="119.4912" y="95.8849"
textLength="2.7432" font-size="1.6933" lengthAdjust="spacingAndGlyphs"
text-anchor="middle" opacity="0" stroke-opacity="0">H4</text>
<g class="stroked-text"><desc>H4</desc>
<path d="M118.5235 95.8294
L118.5235 94.5594
" />
<path d="M118.5235 95.1642
L119.2492 95.1642
" />
<path d="M119.2492 95.8294
L119.2492 94.5594
" />
<path d="M120.3983 94.9828
L120.3983 95.8294
" />
<path d="M120.0959 94.4990
L119.7936 95.4061
" />
<path d="M119.7936 95.4061
L120.5797 95.4061
" />
</g><text x="124.6013" y="98.4249"
textLength="12.9634" font-size="1.6933" lengthAdjust="spacingAndGlyphs"
text-anchor="middle" opacity="0" stroke-opacity="0">MountingHole</text>
<g class="stroked-text"><desc>MountingHole</desc>
<path d="M118.5235 98.3694
L118.5235 97.0994
" />
<path d="M118.5235 97.0994
L118.9469 98.0066
" />
<path d="M118.9469 98.0066
L119.3702 97.0994
" />
<path d="M119.3702 97.0994
L119.3702 98.3694
" />
<path d="M120.1564 98.3694
L120.0354 98.3090
" />
<path d="M120.0354 98.3090
L119.9749 98.2485
" />
<path d="M119.9749 98.2485
L119.9145 98.1275
" />
<path d="M119.9145 98.1275
L119.9145 97.7647
" />
<path d="M119.9145 97.7647
L119.9749 97.6437
" />
<path d="M119.9749 97.6437
L120.0354 97.5832
" />
<path d="M120.0354 97.5832
L120.1564 97.5228
" />
<path d="M120.1564 97.5228
L120.3378 97.5228
" />
<path d="M120.3378 97.5228
L120.4587 97.5832
" />
<path d="M120.4587 97.5832
L120.5192 97.6437
" />
<path d="M120.5192 97.6437
L120.5797 97.7647
" />
<path d="M120.5797 97.7647
L120.5797 98.1275
" />
<path d="M120.5797 98.1275
L120.5192 98.2485
" />
<path d="M120.5192 98.2485
L120.4587 98.3090
" />
<path d="M120.4587 98.3090
L120.3378 98.3694
" />
<path d="M120.3378 98.3694
L120.1564 98.3694
" />
<path d="M121.6682 97.5228
L121.6682 98.3694
" />
<path d="M121.1239 97.5228
L121.1239 98.1880
" />
<path d="M121.1239 98.1880
L121.1844 98.3090
" />
<path d="M121.1844 98.3090
L121.3054 98.3694
" />
<path d="M121.3054 98.3694
L121.4868 98.3694
" />
<path d="M121.4868 98.3694
L121.6077 98.3090
" />
<path d="M121.6077 98.3090
L121.6682 98.2485
" />
<path d="M122.2729 97.5228
L122.2729 98.3694
" />
<path d="M122.2729 97.6437
L122.3334 97.5832
" />
<path d="M122.3334 97.5832
L122.4544 97.5228
" />
<path d="M122.4544 97.5228
L122.6358 97.5228
" />
<path d="M122.6358 97.5228
L122.7567 97.5832
" />
<path d="M122.7567 97.5832
L122.8172 97.7042
" />
<path d="M122.8172 97.7042
L122.8172 98.3694
" />
<path d="M123.2405 97.5228
L123.7243 97.5228
" />
<path d="M123.4219 97.0994
L123.4219 98.1880
" />
<path d="M123.4219 98.1880
L123.4824 98.3090
" />
<path d="M123.4824 98.3090
L123.6034 98.3694
" />
<path d="M123.6034 98.3694
L123.7243 98.3694
" />
<path d="M124.1476 98.3694
L124.1476 97.5228
" />
<path d="M124.1476 97.0994
L124.0872 97.1599
" />
<path d="M124.0872 97.1599
L124.1476 97.2204
" />
<path d="M124.1476 97.2204
L124.2081 97.1599
" />
<path d="M124.2081 97.1599
L124.1476 97.0994
" />
<path d="M124.1476 97.0994
L124.1476 97.2204
" />
<path d="M124.7524 97.5228
L124.7524 98.3694
" />
<path d="M124.7524 97.6437
L124.8129 97.5832
" />
<path d="M124.8129 97.5832
L124.9339 97.5228
" />
<path d="M124.9339 97.5228
L125.1153 97.5228
" />
<path d="M125.1153 97.5228
L125.2362 97.5832
" />
<path d="M125.2362 97.5832
L125.2967 97.7042
" />
<path d="M125.2967 97.7042
L125.2967 98.3694
" />
<path d="M126.4457 97.5228
L126.4457 98.5509
" />
<path d="M126.4457 98.5509
L126.3852 98.6718
" />
<path d="M126.3852 98.6718
L126.3248 98.7323
" />
<path d="M126.3248 98.7323
L126.2038 98.7928
" />
<path d="M126.2038 98.7928
L126.0224 98.7928
" />
<path d="M126.0224 98.7928
L125.9014 98.7323
" />
<path d="M126.4457 98.3090
L126.3248 98.3694
" />
<path d="M126.3248 98.3694
L126.0829 98.3694
" />
<path d="M126.0829 98.3694
L125.9619 98.3090
" />
<path d="M125.9619 98.3090
L125.9014 98.2485
" />
<path d="M125.9014 98.2485
L125.8410 98.1275
" />
<path d="M125.8410 98.1275
L125.8410 97.7647
" />
<path d="M125.8410 97.7647
L125.9014 97.6437
" />
<path d="M125.9014 97.6437
L125.9619 97.5832
" />
<path d="M125.9619 97.5832
L126.0829 97.5228
" />
<path d="M126.0829 97.5228
L126.3248 97.5228
" />
<path d="M126.3248 97.5228
L126.4457 97.5832
" />
<path d="M127.0504 98.3694
L127.0504 97.0994
" />
<path d="M127.0504 97.7042
L127.7761 97.7042
" />
<path d="M127.7761 98.3694
L127.7761 97.0994
" />
<path d="M128.5624 98.3694
L128.4414 98.3090
" />
<path d="M128.4414 98.3090
L128.3809 98.2485
" />
<path d="M128.3809 98.2485
L128.3205 98.1275
" />
<path d="M128.3205 98.1275
L128.3205 97.7647
" />
<path d="M128.3205 97.7647
L128.3809 97.6437
" />
<path d="M128.3809 97.6437
L128.4414 97.5832
" />
<path d="M128.4414 97.5832
L128.5624 97.5228
" />
<path d="M128.5624 97.5228
L128.7438 97.5228
" />
<path d="M128.7438 97.5228
L128.8647 97.5832
" />
<path d="M128.8647 97.5832
L128.9252 97.6437
" />
<path d="M128.9252 97.6437
L128.9857 97.7647
" />
<path d="M128.9857 97.7647
L128.9857 98.1275
" />
<path d="M128.9857 98.1275
L128.9252 98.2485
" />
<path d="M128.9252 98.2485
L128.8647 98.3090
" />
<path d="M128.8647 98.3090
L128.7438 98.3694
" />
<path d="M128.7438 98.3694
L128.5624 98.3694
" />
<path d="M129.7114 98.3694
L129.5904 98.3090
" />
<path d="M129.5904 98.3090
L129.5299 98.1880
" />
<path d="M129.5299 98.1880
L129.5299 97.0994
" />
<path d="M130.6789 98.3090
L130.5580 98.3694
" />
<path d="M130.5580 98.3694
L130.3161 98.3694
" />
<path d="M130.3161 98.3694
L130.1951 98.3090
" />
<path d="M130.1951 98.3090
L130.1347 98.1880
" />
<path d="M130.1347 98.1880
L130.1347 97.7042
" />
<path d="M130.1347 97.7042
L130.1951 97.5832
" />
<path d="M130.1951 97.5832
L130.3161 97.5228
" />
<path d="M130.3161 97.5228
L130.5580 97.5228
" />
<path d="M130.5580 97.5228
L130.6789 97.5832
" />
<path d="M130.6789 97.5832
L130.7394 97.7042
" />
<path d="M130.7394 97.7042
L130.7394 97.8251
" />
<path d="M130.7394 97.8251
L130.1347 97.9461
" />
</g></g>
<g style="fill:none; 
stroke:#840000; stroke-width:1.2700; stroke-opacity:1; 
stroke-linecap:round; stroke-linejoin:round;">
<circle cx="139.7000" cy="86.3600" r="1.2700" /> 
</g>
<g style="fill:none; 
stroke:#008484; stroke-width:0.1524; stroke-opacity:1; 
stroke-linecap:round; stroke-linejoin:round;">
<text x="143.6212" y="85.7249"
textLength="2.7432" font-size="1.6933" lengthAdjust="spacingAndGlyphs"
text-anchor="middle" opacity="0" stroke-opacity="0">H2</text>
<g class="stroked-text"><desc>H2</desc>
<path d="M142.6535 85.6694
L142.6535 84.3994
" />
<path d="M142.6535 85.0042
L143.3792 85.0042
" />
<path d="M143.3792 85.6694
L143.3792 84.3994
" />
<path d="M143.9236 84.5204
L143.9840 84.4599
" />
<path d="M143.9840 84.4599
L144.1050 84.3994
" />
<path d="M144.1050 84.3994
L144.4074 84.3994
" />
<path d="M144.4074 84.3994
L144.5283 84.4599
" />
<path d="M144.5283 84.4599
L144.5888 84.5204
" />
<path d="M144.5888 84.5204
L144.6493 84.6413
" />
<path d="M144.6493 84.6413
L144.6493 84.7623
" />
<path d="M144.6493 84.7623
L144.5888 84.9437
" />
<path d="M144.5888 84.9437
L143.8631 85.6694
" />
<path d="M143.8631 85.6694
L144.6493 85.6694
" />
</g><text x="148.7313" y="88.2649"
textLength="12.9634" font-size="1.6933" lengthAdjust="spacingAndGlyphs"
text-anchor="middle" opacity="0" stroke-opacity="0">MountingHole</text>
<g class="stroked-text"><desc>MountingHole</desc>
<path d="M142.6535 88.2094
L142.6535 86.9394
" />
<path d="M142.6535 86.9394
L143.0769 87.8466
" />
<path d="M143.0769 87.8466
L143.5002 86.9394
" />
<path d="M143.5002 86.9394
L143.5002 88.2094
" />
<path d="M144.2864 88.2094
L144.1654 88.1490
" />
<path d="M144.1654 88.1490
L144.1049 88.0885
" />
<path d="M144.1049 88.0885
L144.0445 87.9675
" />
<path d="M144.0445 87.9675
L144.0445 87.6047
" />
<path d="M144.0445 87.6047
L144.1049 87.4837
" />
<path d="M144.1049 87.4837
L144.1654 87.4232
" />
<path d="M144.1654 87.4232
L144.2864 87.3628
" />
<path d="M144.2864 87.3628
L144.4678 87.3628
" />
<path d="M144.4678 87.3628
L144.5887 87.4232
" />
<path d="M144.5887 87.4232
L144.6492 87.4837
" />
<path d="M144.6492 87.4837
L144.7097 87.6047
" />
<path d="M144.7097 87.6047
L144.7097 87.9675
" />
<path d="M144.7097 87.9675
L144.6492 88.0885
" />
<path d="M144.6492 88.0885
L144.5887 88.1490
" />
<path d="M144.5887 88.1490
L144.4678 88.2094
" />
<path d="M144.4678 88.2094
L144.2864 88.2094
" />
<path d="M145.7982 87.3628
L145.7982 88.2094
" />
<path d="M145.2539 87.3628
L145.2539 88.0280
" />
<path d="M145.2539 88.0280
L145.3144 88.1490
" />
<path d="M145.3144 88.1490
L145.4354 88.2094
" />
<path d="M145.4354 88.2094
L145.6168 88.2094
" />
<path d="M145.6168 88.2094
L145.7377 88.1490
" />
<path d="M145.7377 88.1490
L145.7982 88.0885
" />
<path d="M146.4029 87.3628
L146.4029 88.2094
" />
<path d="M146.4029 87.4837
L146.4634 87.4232
" />
<path d="M146.4634 87.4232
L146.5844 87.3628
" />
<path d="M146.5844 87.3628
L146.7658 87.3628
" />
<path d="M146.7658 87.3628
L146.8867 87.4232
" />
<path d="M146.8867 87.4232
L146.9472 87.5442
" />
<path d="M146.9472 87.5442
L146.9472 88.2094
" />
<path d="M147.3705 87.3628
L147.8543 87.3628
" />
<path d="M147.5519 86.9394
L147.5519 88.0280
" />
<path d="M147.5519 88.0280
L147.6124 88.1490
" />
<path d="M147.6124 88.1490
L147.7334 88.2094
" />
<path d="M147.7334 88.2094
L147.8543 88.2094
" />
<path d="M148.2776 88.2094
L148.2776 87.3628
" />
<path d="M148.2776 86.9394
L148.2172 86.9999
" />
<path d="M148.2172 86.9999
L148.2776 87.0604
" />
<path d="M148.2776 87.0604
L148.3381 86.9999
" />
<path d="M148.3381 86.9999
L148.2776 86.9394
" />
<path d="M148.2776 86.9394
L148.2776 87.0604
" />
<path d="M148.8824 87.3628
L148.8824 88.2094
" />
<path d="M148.8824 87.4837
L148.9429 87.4232
" />
<path d="M148.9429 87.4232
L149.0639 87.3628
" />
<path d="M149.0639 87.3628
L149.2453 87.3628
" />
<path d="M149.2453 87.3628
L149.3662 87.4232
" />
<path d="M149.3662 87.4232
L149.4267 87.5442
" />
<path d="M149.4267 87.5442
L149.4267 88.2094
" />
<path d="M150.5757 87.3628
L150.5757 88.3909
" />
<path d="M150.5757 88.3909
L150.5152 88.5118
" />
<path d="M150.5152 88.5118
L150.4548 88.5723
" />
<path d="M150.4548 88.5723
L150.3338 88.6328
" />
<path d="M150.3338 88.6328
L150.1524 88.6328
" />
<path d="M150.1524 88.6328
L150.0314 88.5723
" />
<path d="M150.5757 88.1490
L150.4548 88.2094
" />
<path d="M150.4548 88.2094
L150.2129 88.2094
" />
<path d="M150.2129 88.2094
L150.0919 88.1490
" />
<path d="M150.0919 88.1490
L150.0314 88.0885
" />
<path d="M150.0314 88.0885
L149.9710 87.9675
" />
<path d="M149.9710 87.9675
L149.9710 87.6047
" />
<path d="M149.9710 87.6047
L150.0314 87.4837
" />
<path d="M150.0314 87.4837
L150.0919 87.4232
" />
<path d="M150.0919 87.4232
L150.2129 87.3628
" />
<path d="M150.2129 87.3628
L150.4548 87.3628
" />
<path d="M150.4548 87.3628
L150.5757 87.4232
" />
<path d="M151.1804 88.2094
L151.1804 86.9394
" />
<path d="M151.1804 87.5442
L151.9061 87.5442
" />
<path d="M151.9061 88.2094
L151.9061 86.9394
" />
<path d="M152.6924 88.2094
L152.5714 88.1490
" />
<path d="M152.5714 88.1490
L152.5109 88.0885
" />
<path d="M152.5109 88.0885
L152.4505 87.9675
" />
<path d="M152.4505 87.9675
L152.4505 87.6047
" />
<path d="M152.4505 87.6047
L152.5109 87.4837
" />
<path d="M152.5109 87.4837
L152.5714 87.4232
" />
<path d="M152.5714 87.4232
L152.6924 87.3628
" />
<path d="M152.6924 87.3628
L152.8738 87.3628
" />
<path d="M152.8738 87.3628
L152.9947 87.4232
" />
<path d="M152.9947 87.4232
L153.0552 87.4837
" />
<path d="M153.0552 87.4837
L153.1157 87.6047
" />
<path d="M153.1157 87.6047
L153.1157 87.9675
" />
<path d="M153.1157 87.9675
L153.0552 88.0885
" />
<path d="M153.0552 88.0885
L152.9947 88.1490
" />
<path d="M152.9947 88.1490
L152.8738 88.2094
" />
<path d="M152.8738 88.2094
L152.6924 88.2094
" />
<path d="M153.8414 88.2094
L153.7204 88.1490
" />
<path d="M153.7204 88.1490
L153.6599 88.0280
" />
<path d="M153.6599 88.0280
L153.6599 86.9394
" />
<path d="M154.8089 88.1490
L154.6880 88.2094
" />
<path d="M154.6880 88.2094
L154.4461 88.2094
" />
<path d="M154.4461 88.2094
L154.3251 88.1490
" />
<path d="M154.3251 88.1490
L154.2647 88.0280
" />
<path d="M154.2647 88.0280
L154.2647 87.5442
" />
<path d="M154.2647 87.5442
L154.3251 87.4232
" />
<path d="M154.3251 87.4232
L154.4461 87.3628
" />
<path d="M154.4461 87.3628
L154.6880 87.3628
" />
<path d="M154.6880 87.3628
L154.8089 87.4232
" />
<path d="M154.8089 87.4232
L154.8694 87.5442
" />
<path d="M154.8694 87.5442
L154.8694 87.6651
" />
<path d="M154.8694 87.6651
L154.2647 87.7861
" />
</g></g>
<g style="fill:none; 
stroke:#840000; stroke-width:1.2700; stroke-opacity:1; 
stroke-linecap:round; stroke-linejoin:round;">
<circle cx="115.5700" cy="86.3600" r="1.2700" /> 
</g>
<g style="fill:none; 
stroke:#008484; stroke-width:0.1524; stroke-opacity:1; 
stroke-linecap:round; stroke-linejoin:round;">
<text x="119.4912" y="85.7249"
textLength="2.7432" font-size="1.6933" lengthAdjust="spacingAndGlyphs"
text-anchor="middle" opacity="0" stroke-opacity="0">H1</text>
<g class="stroked-text"><desc>H1</desc>
<path d="M118.5235 85.6694
L118.5235 84.3994
" />
<path d="M118.5235 85.0042
L119.2492 85.0042
" />
<path d="M119.2492 85.6694
L119.2492 84.3994
" />
<path d="M120.5193 85.6694
L119.7936 85.6694
" />
<path d="M120.1564 85.6694
L120.1564 84.3994
" />
<path d="M120.1564 84.3994
L120.0355 84.5809
" />
<path d="M120.0355 84.5809
L119.9145 84.7018
" />
<path d="M119.9145 84.7018
L119.7936 84.7623
" />
</g><text x="124.6013" y="88.2649"
textLength="12.9634" font-size="1.6933" lengthAdjust="spacingAndGlyphs"
text-anchor="middle" opacity="0" stroke-opacity="0">MountingHole</text>
<g class="stroked-text"><desc>MountingHole</desc>
<path d="M118.5235 88.2094
L118.5235 86.9394
" />
<path d="M118.5235 86.9394
L118.9469 87.8466
" />
<path d="M118.9469 87.8466
L119.3702 86.9394
" />
<path d="M119.3702 86.9394
L119.3702 88.2094
" />
<path d="M120.1564 88.2094
L120.0354 88.1490
" />
<path d="M120.0354 88.1490
L119.9749 88.0885
" />
<path d="M119.9749 88.0885
L119.9145 87.9675
" />
<path d="M119.9145 87.9675
L119.9145 87.6047
" />
<path d="M119.9145 87.6047
L119.9749 87.4837
" />
<path d="M119.9749 87.4837
L120.0354 87.4232
" />
<path d="M120.0354 87.4232
L120.1564 87.3628
" />
<path d="M120.1564 87.3628
L120.3378 87.3628
" />
<path d="M120.3378 87.3628
L120.4587 87.4232
" />
<path d="M120.4587 87.4232
L120.5192 87.4837
" />
<path d="M120.5192 87.4837
L120.5797 87.6047
" />
<path d="M120.5797 87.6047
L120.5797 87.9675
" />
<path d="M120.5797 87.9675
L120.5192 88.0885
" />
<path d="M120.5192 88.0885
L120.4587 88.1490
" />
<path d="M120.4587 88.1490
L120.3378 88.2094
" />
<path d="M120.3378 88.2094
L120.1564 88.2094
" />
<path d="M121.6682 87.3628
L121.6682 88.2094
" />
<path d="M121.1239 87.3628
L121.1239 88.0280
" />
<path d="M121.1239 88.0280
L121.1844 88.1490
" />
<path d="M121.1844 88.1490
L121.3054 88.2094
" />
<path d="M121.3054 88.2094
L121.4868 88.2094
" />
<path d="M121.4868 88.2094
L121.6077 88.1490
" />
<path d="M121.6077 88.1490
L121.6682 88.0885
" />
<path d="M122.2729 87.3628
L122.2729 88.2094
" />
<path d="M122.2729 87.4837
L122.3334 87.4232
" />
<path d="M122.3334 87.4232
L122.4544 87.3628
" />
<path d="M122.4544 87.3628
L122.6358 87.3628
" />
<path d="M122.6358 87.3628
L122.7567 87.4232
" />
<path d="M122.7567 87.4232
L122.8172 87.5442
" />
<path d="M122.8172 87.5442
L122.8172 88.2094
" />
<path d="M123.2405 87.3628
L123.7243 87.3628
" />
<path d="M123.4219 86.9394
L123.4219 88.0280
" />
<path d="M123.4219 88.0280
L123.4824 88.1490
" />
<path d="M123.4824 88.1490
L123.6034 88.2094
" />
<path d="M123.6034 88.2094
L123.7243 88.2094
" />
<path d="M124.1476 88.2094
L124.1476 87.3628
" />
<path d="M124.1476 86.9394
L124.0872 86.9999
" />
<path d="M124.0872 86.9999
L124.1476 87.0604
" />
<path d="M124.1476 87.0604
L124.2081 86.9999
" />
<path d="M124.2081 86.9999
L124.1476 86.9394
" />
<path d="M124.1476 86.9394
L124.1476 87.0604
" />
<path d="M124.7524 87.3628
L124.7524 88.2094
" />
<path d="M124.7524 87.4837
L124.8129 87.4232
" />
<path d="M124.8129 87.4232
L124.9339 87.3628
" />
<path d="M124.9339 87.3628
L125.1153 87.3628
" />
<path d="M125.1153 87.3628
L125.2362 87.4232
" />
<path d="M125.2362 87.4232
L125.2967 87.5442
" />
<path d="M125.2967 87.5442
L125.2967 88.2094
" />
<path d="M126.4457 87.3628
L126.4457 88.3909
" />
<path d="M126.4457 88.3909
L126.3852 88.5118
" />
<path d="M126.3852 88.5118
L126.3248 88.5723
" />
<path d="M126.3248 88.5723
L126.2038 88.6328
" />
<path d="M126.2038 88.6328
L126.0224 88.6328
" />
<path d="M126.0224 88.6328
L125.9014 88.5723
" />
<path d="M126.4457 88.1490
L126.3248 88.2094
" />
<path d="M126.3248 88.2094
L126.0829 88.2094
" />
<path d="M126.0829 88.2094
L125.9619 88.1490
" />
<path d="M125.9619 88.1490
L125.9014 88.0885
" />
<path d="M125.9014 88.0885
L125.8410 87.9675
" />
<path d="M125.8410 87.9675
L125.8410 87.6047
" />
<path d="M125.8410 87.6047
L125.9014 87.4837
" />
<path d="M125.9014 87.4837
L125.9619 87.4232
" />
<path d="M125.9619 87.4232
L126.0829 87.3628
" />
<path d="M126.0829 87.3628
L126.3248 87.3628
" />
<path d="M126.3248 87.3628
L126.4457 87.4232
" />
<path d="M127.0504 88.2094
L127.0504 86.9394
" />
<path d="M127.0504 87.5442
L127.7761 87.5442
" />
<path d="M127.7761 88.2094
L127.7761 86.9394
" />
<path d="M128.5624 88.2094
L128.4414 88.1490
" />
<path d="M128.4414 88.1490
L128.3809 88.0885
" />
<path d="M128.3809 88.0885
L128.3205 87.9675
" />
<path d="M128.3205 87.9675
L128.3205 87.6047
" />
<path d="M128.3205 87.6047
L128.3809 87.4837
" />
<path d="M128.3809 87.4837
L128.4414 87.4232
" />
<path d="M128.4414 87.4232
L128.5624 87.3628
" />
<path d="M128.5624 87.3628
L128.7438 87.3628
" />
<path d="M128.7438 87.3628
L128.8647 87.4232
" />
<path d="M128.8647 87.4232
L128.9252 87.4837
" />
<path d="M128.9252 87.4837
L128.9857 87.6047
" />
<path d="M128.9857 87.6047
L128.9857 87.9675
" />
<path d="M128.9857 87.9675
L128.9252 88.0885
" />
<path d="M128.9252 88.0885
L128.8647 88.1490
" />
<path d="M128.8647 88.1490
L128.7438 88.2094
" />
<path d="M128.7438 88.2094
L128.5624 88.2094
" />
<path d="M129.7114 88.2094
L129.5904 88.1490
" />
<path d="M129.5904 88.1490
L129.5299 88.0280
" />
<path d="M129.5299 88.0280
L129.5299 86.9394
" />
<path d="M130.6789 88.1490
L130.5580 88.2094
" />
<path d="M130.5580 88.2094
L130.3161 88.2094
" />
<path d="M130.3161 88.2094
L130.1951 88.1490
" />
<path d="M130.1951 88.1490
L130.1347 88.0280
" />
<path d="M130.1347 88.0280
L130.1347 87.5442
" />
<path d="M130.1347 87.5442
L130.1951 87.4232
" />
<path d="M130.1951 87.4232
L130.3161 87.3628
" />
<path d="M130.3161 87.3628
L130.5580 87.3628
" />
<path d="M130.5580 87.3628
L130.6789 87.4232
" />
<path d="M130.6789 87.4232
L130.7394 87.5442
" />
<path d="M130.7394 87.5442
L130.7394 87.6651
" />
<path d="M130.7394 87.6651
L130.1347 87.7861
" />
</g></g>
<g style="fill:none; 
stroke:#840000; stroke-width:1.2700; stroke-opacity:1; 
stroke-linecap:round; stroke-linejoin:round;">
<circle cx="160.0200" cy="96.5200" r="1.2700" /> 
</g>
<g style="fill:none; 
stroke:#008484; stroke-width:0.1524; stroke-opacity:1; 
stroke-linecap:round; stroke-linejoin:round;">
<text x="163.9412" y="95.8849"
textLength="2.7432" font-size="1.6933" lengthAdjust="spacingAndGlyphs"
text-anchor="middle" opacity="0" stroke-opacity="0">H6</text>
<g class="stroked-text"><desc>H6</desc>
<path d="M162.9735 95.8294
L162.9735 94.5594
" />
<path d="M162.9735 95.1642
L163.6992 95.1642
" />
<path d="M163.6992 95.8294
L163.6992 94.5594
" />
<path d="M164.8483 94.5594
L164.6064 94.5594
" />
<path d="M164.6064 94.5594
L164.4855 94.6199
" />
<path d="M164.4855 94.6199
L164.4250 94.6804
" />
<path d="M164.4250 94.6804
L164.3040 94.8618
" />
<path d="M164.3040 94.8618
L164.2436 95.1037
" />
<path d="M164.2436 95.1037
L164.2436 95.5875
" />
<path d="M164.2436 95.5875
L164.3040 95.7085
" />
<path d="M164.3040 95.7085
L164.3645 95.7690
" />
<path d="M164.3645 95.7690
L164.4855 95.8294
" />
<path d="M164.4855 95.8294
L164.7274 95.8294
" />
<path d="M164.7274 95.8294
L164.8483 95.7690
" />
<path d="M164.8483 95.7690
L164.9088 95.7085
" />
<path d="M164.9088 95.7085
L164.9693 95.5875
" />
<path d="M164.9693 95.5875
L164.9693 95.2851
" />
<path d="M164.9693 95.2851
L164.9088 95.1642
" />
<path d="M164.9088 95.1642
L164.8483 95.1037
" />
<path d="M164.8483 95.1037
L164.7274 95.0432
" />
<path d="M164.7274 95.0432
L164.4855 95.0432
" />
<path d="M164.4855 95.0432
L164.3645 95.1037
" />
<path d="M164.3645 95.1037
L164.3040 95.1642
" />
<path d="M164.3040 95.1642
L164.2436 95.2851
" />
</g><text x="169.0513" y="98.4249"
textLength="12.9634" font-size="1.6933" lengthAdjust="spacingAndGlyphs"
text-anchor="middle" opacity="0" stroke-opacity="0">MountingHole</text>
<g class="stroked-text"><desc>MountingHole</desc>
<path d="M162.9735 98.3694
L162.9735 97.0994
" />
<path d="M162.9735 97.0994
L163.3969 98.0066
" />
<path d="M163.3969 98.0066
L163.8202 97.0994
" />
<path d="M163.8202 97.0994
L163.8202 98.3694
" />
<path d="M164.6064 98.3694
L164.4854 98.3090
" />
<path d="M164.4854 98.3090
L164.4249 98.2485
" />
<path d="M164.4249 98.2485
L164.3645 98.1275
" />
<path d="M164.3645 98.1275
L164.3645 97.7647
" />
<path d="M164.3645 97.7647
L164.4249 97.6437
" />
<path d="M164.4249 97.6437
L164.4854 97.5832
" />
<path d="M164.4854 97.5832
L164.6064 97.5228
" />
<path d="M164.6064 97.5228
L164.7878 97.5228
" />
<path d="M164.7878 97.5228
L164.9087 97.5832
" />
<path d="M164.9087 97.5832
L164.9692 97.6437
" />
<path d="M164.9692 97.6437
L165.0297 97.7647
" />
<path d="M165.0297 97.7647
L165.0297 98.1275
" />
<path d="M165.0297 98.1275
L164.9692 98.2485
" />
<path d="M164.9692 98.2485
L164.9087 98.3090
" />
<path d="M164.9087 98.3090
L164.7878 98.3694
" />
<path d="M164.7878 98.3694
L164.6064 98.3694
" />
<path d="M166.1182 97.5228
L166.1182 98.3694
" />
<path d="M165.5739 97.5228
L165.5739 98.1880
" />
<path d="M165.5739 98.1880
L165.6344 98.3090
" />
<path d="M165.6344 98.3090
L165.7554 98.3694
" />
<path d="M165.7554 98.3694
L165.9368 98.3694
" />
<path d="M165.9368 98.3694
L166.0577 98.3090
" />
<path d="M166.0577 98.3090
L166.1182 98.2485
" />
<path d="M166.7229 97.5228
L166.7229 98.3694
" />
<path d="M166.7229 97.6437
L166.7834 97.5832
" />
<path d="M166.7834 97.5832
L166.9044 97.5228
" />
<path d="M166.9044 97.5228
L167.0858 97.5228
" />
<path d="M167.0858 97.5228
L167.2067 97.5832
" />
<path d="M167.2067 97.5832
L167.2672 97.7042
" />
<path d="M167.2672 97.7042
L167.2672 98.3694
" />
<path d="M167.6905 97.5228
L168.1743 97.5228
" />
<path d="M167.8719 97.0994
L167.8719 98.1880
" />
<path d="M167.8719 98.1880
L167.9324 98.3090
" />
<path d="M167.9324 98.3090
L168.0534 98.3694
" />
<path d="M168.0534 98.3694
L168.1743 98.3694
" />
<path d="M168.5976 98.3694
L168.5976 97.5228
" />
<path d="M168.5976 97.0994
L168.5372 97.1599
" />
<path d="M168.5372 97.1599
L168.5976 97.2204
" />
<path d="M168.5976 97.2204
L168.6581 97.1599
" />
<path d="M168.6581 97.1599
L168.5976 97.0994
" />
<path d="M168.5976 97.0994
L168.5976 97.2204
" />
<path d="M169.2024 97.5228
L169.2024 98.3694
" />
<path d="M169.2024 97.6437
L169.2629 97.5832
" />
<path d="M169.2629 97.5832
L169.3839 97.5228
" />
<path d="M169.3839 97.5228
L169.5653 97.5228
" />
<path d="M169.5653 97.5228
L169.6862 97.5832
" />
<path d="M169.6862 97.5832
L169.7467 97.7042
" />
<path d="M169.7467 97.7042
L169.7467 98.3694
" />
<path d="M170.8957 97.5228
L170.8957 98.5509
" />
<path d="M170.8957 98.5509
L170.8352 98.6718
" />
<path d="M170.8352 98.6718
L170.7748 98.7323
" />
<path d="M170.7748 98.7323
L170.6538 98.7928
" />
<path d="M170.6538 98.7928
L170.4724 98.7928
" />
<path d="M170.4724 98.7928
L170.3514 98.7323
" />
<path d="M170.8957 98.3090
L170.7748 98.3694
" />
<path d="M170.7748 98.3694
L170.5329 98.3694
" />
<path d="M170.5329 98.3694
L170.4119 98.3090
" />
<path d="M170.4119 98.3090
L170.3514 98.2485
" />
<path d="M170.3514 98.2485
L170.2910 98.1275
" />
<path d="M170.2910 98.1275
L170.2910 97.7647
" />
<path d="M170.2910 97.7647
L170.3514 97.6437
" />
<path d="M170.3514 97.6437
L170.4119 97.5832
" />
<path d="M170.4119 97.5832
L170.5329 97.5228
" />
<path d="M170.5329 97.5228
L170.7748 97.5228
" />
<path d="M170.7748 97.5228
L170.8957 97.5832
" />
<path d="M171.5004 98.3694
L171.5004 97.0994
" />
<path d="M171.5004 97.7042
L172.2261 97.7042
" />
<path d="M172.2261 98.3694
L172.2261 97.0994
" />
<path d="M173.0124 98.3694
L172.8914 98.3090
" />
<path d="M172.8914 98.3090
L172.8309 98.2485
" />
<path d="M172.8309 98.2485
L172.7705 98.1275
" />
<path d="M172.7705 98.1275
L172.7705 97.7647
" />
<path d="M172.7705 97.7647
L172.8309 97.6437
" />
<path d="M172.8309 97.6437
L172.8914 97.5832
" />
<path d="M172.8914 97.5832
L173.0124 97.5228
" />
<path d="M173.0124 97.5228
L173.1938 97.5228
" />
<path d="M173.1938 97.5228
L173.3147 97.5832
" />
<path d="M173.3147 97.5832
L173.3752 97.6437
" />
<path d="M173.3752 97.6437
L173.4357 97.7647
" />
<path d="M173.4357 97.7647
L173.4357 98.1275
" />
<path d="M173.4357 98.1275
L173.3752 98.2485
" />
<path d="M173.3752 98.2485
L173.3147 98.3090
" />
<path d="M173.3147 98.3090
L173.1938 98.3694
" />
<path d="M173.1938 98.3694
L173.0124 98.3694
" />
<path d="M174.1614 98.3694
L174.0404 98.3090
" />
<path d="M174.0404 98.3090
L173.9799 98.1880
" />
<path d="M173.9799 98.1880
L173.9799 97.0994
" />
<path d="M175.1289 98.3090
L175.0080 98.3694
" />
<path d="M175.0080 98.3694
L174.7661 98.3694
" />
<path d="M174.7661 98.3694
L174.6451 98.3090
" />
<path d="M174.6451 98.3090
L174.5847 98.1880
" />
<path d="M174.5847 98.1880
L174.5847 97.7042
" />
<path d="M174.5847 97.7042
L174.6451 97.5832
" />
<path d="M174.6451 97.5832
L174.7661 97.5228
" />
<path d="M174.7661 97.5228
L175.0080 97.5228
" />
<path d="M175.0080 97.5228
L175.1289 97.5832
" />
<path d="M175.1289 97.5832
L175.1894 97.7042
" />
<path d="M175.1894 97.7042
L175.1894 97.8251
" />
<path d="M175.1894 97.8251
L174.5847 97.9461
" />
</g></g> 
</svg>
